<svg xmlns="http://www.w3.org/2000/svg" xmlns:xlink="http://www.w3.org/1999/xlink" width="319.672" height="382.282" viewBox="0 0 319.672 382.282">
  <defs>
    <linearGradient id="linear-gradient" y1="0.5" x2="1" y2="0.5" gradientUnits="objectBoundingBox">
      <stop offset="0" stop-color="#bfbdbb"/>
      <stop offset="1" stop-color="#e2e2e2"/>
    </linearGradient>
    <linearGradient id="linear-gradient-2" x1="0.5" y1="0.044" x2="0.5" y2="1.026" gradientUnits="objectBoundingBox">
      <stop offset="0" stop-color="#b95cff"/>
      <stop offset="1" stop-color="#a34de2"/>
    </linearGradient>
    <linearGradient id="linear-gradient-4" x1="0.5" y1="0.066" x2="0.5" y2="0.599" xlink:href="#linear-gradient"/>
    <linearGradient id="linear-gradient-5" y1="0.5" x2="1" y2="0.5" gradientUnits="objectBoundingBox">
      <stop offset="0" stop-color="#38386d"/>
      <stop offset="1" stop-color="#181842"/>
    </linearGradient>
    <linearGradient id="linear-gradient-6" x1="-0.029" y1="0.5" x2="0.99" y2="0.5" xlink:href="#linear-gradient-2"/>
    <linearGradient id="linear-gradient-7" y1="0.5" x2="1" y2="0.5" gradientUnits="objectBoundingBox">
      <stop offset="0.016" stop-color="#047a64"/>
      <stop offset="1" stop-color="#09cebf"/>
    </linearGradient>
    <linearGradient id="linear-gradient-10" y1="0.5" x2="1" y2="0.5" gradientUnits="objectBoundingBox">
      <stop offset="0" stop-color="#f3986c"/>
      <stop offset="1" stop-color="#fcb55a"/>
    </linearGradient>
    <linearGradient id="linear-gradient-11" x1="1" y1="0.5" x2="0" y2="0.5" gradientUnits="objectBoundingBox">
      <stop offset="0" stop-color="#3ab5ff"/>
      <stop offset="1" stop-color="#3968ff"/>
    </linearGradient>
    <linearGradient id="linear-gradient-12" x1="1" y1="0.5" x2="0" y2="0.5" gradientUnits="objectBoundingBox">
      <stop offset="0" stop-color="#ff22a0"/>
      <stop offset="1" stop-color="#e270b2"/>
    </linearGradient>
    <linearGradient id="linear-gradient-14" x1="0.5" y1="0.087" x2="0.5" y2="1.265" gradientUnits="objectBoundingBox">
      <stop offset="0" stop-color="#64f3e0"/>
      <stop offset="1" stop-color="#51abfc"/>
    </linearGradient>
    <linearGradient id="linear-gradient-15" y1="-0.062" y2="0.807" xlink:href="#linear-gradient-14"/>
    <linearGradient id="linear-gradient-16" x1="-402.549" y1="-0.062" x2="-402.549" y2="0.807" xlink:href="#linear-gradient-14"/>
    <linearGradient id="linear-gradient-17" x1="0" y1="0.5" x2="1" y2="0.5" xlink:href="#linear-gradient-2"/>
  </defs>
  <g id="_2" data-name="2" transform="translate(-18.15 -386.526)">
    <rect id="Rectangle_1814" data-name="Rectangle 1814" width="118.567" height="72.193" rx="3.855" transform="translate(118.45 474.322)" fill="url(#linear-gradient)"/>
    <path id="Path_2969" data-name="Path 2969" d="M-270.781,139.211h-24.281a3.738,3.738,0,0,1-3.142-5.763l15.181-23.566H-267v25.549A3.78,3.78,0,0,1-270.781,139.211Z" transform="translate(504.336 315.492)" fill="url(#linear-gradient-2)"/>
    <path id="Rectangle_1815" data-name="Rectangle 1815" d="M5.364,0H43.09a5.364,5.364,0,0,1,5.364,5.364V6.829a0,0,0,0,1,0,0H0a0,0,0,0,1,0,0V5.364A5.364,5.364,0,0,1,5.364,0Z" transform="translate(153.506 557.193)" fill="url(#linear-gradient)"/>
    <rect id="Rectangle_1816" data-name="Rectangle 1816" width="10.678" height="21.47" transform="translate(188.468 546.515) rotate(90)" fill="url(#linear-gradient-4)"/>
    <ellipse id="Ellipse_556" data-name="Ellipse 556" cx="8.604" cy="8.604" rx="8.604" ry="8.604" transform="translate(169.129 501.814)" fill="#fff"/>
    <path id="Path_2970" data-name="Path 2970" d="M-231.508,198.484" transform="translate(522.725 339.701)" fill="none" stroke="#000" stroke-miterlimit="10" stroke-width="0.462"/>
    <path id="Path_2971" data-name="Path 2971" d="M-227.356,150.049a48.634,48.634,0,0,0-46.678-38.722v-2.371a50.973,50.973,0,0,1,31.341,11.438,50.972,50.972,0,0,1,17.661,29.179l17.892,87.314-2.324.476Z" transform="translate(511.105 315.238)" fill="url(#linear-gradient-5)"/>
    <path id="Path_2972" data-name="Path 2972" d="M-286.507,113.734v-9.658A8.1,8.1,0,0,1-278.435,96h0a8.1,8.1,0,0,1,8.072,8.072v9.658" transform="translate(507.697 311.699)" fill="url(#linear-gradient-6)"/>
    <path id="Path_2973" data-name="Path 2973" d="M-248.875,284.827s-13.779-.307-5.612,26.036c4.272,13.778-9.5,26.4-9.5,26.4s21.72-6.283,28.512-25.931S-243.459,284.071-248.875,284.827Z" transform="translate(513.849 363.28)" fill="url(#linear-gradient-7)"/>
    <path id="Path_2974" data-name="Path 2974" d="M-309.943,324.333s-.308,13.779,26.037,5.611c13.778-4.27,26.4,9.5,26.4,9.5s-6.283-21.72-25.931-28.512S-310.7,318.915-309.943,324.333Z" transform="translate(501.279 369.949)" fill="url(#linear-gradient-7)"/>
    <path id="Path_2975" data-name="Path 2975" d="M-266.24,239.517s20.89,5.073-2,41.492c-11.972,19.046,3.714,43.611,3.714,43.611s-30.209-18.2-32.55-50.535S-274.1,236.2-266.24,239.517Z" transform="translate(504.766 350.684)" fill="url(#linear-gradient-7)"/>
    <path id="Path_2976" data-name="Path 2976" d="M-269.838,355.1c-6.572-25.817,33.951-22.116,27.375-60.591" transform="translate(512.054 365.939)" fill="none" stroke="#707070" stroke-miterlimit="10" stroke-width="1.218" style="mix-blend-mode: multiply;isolation: isolate"/>
    <path id="Path_2977" data-name="Path 2977" d="M-239.67,344.986c-25.819,6.573-22.116-33.952-60.592-27.376" transform="translate(503.938 372.053)" fill="none" stroke="#707070" stroke-miterlimit="10" stroke-width="1.218" style="mix-blend-mode: multiply;isolation: isolate"/>
    <path id="Path_2978" data-name="Path 2978" d="M-264.019,354.8c20.279-36.268-42.281-46.971-16.91-102.314" transform="translate(507.539 354.457)" fill="none" stroke="#707070" stroke-miterlimit="10" stroke-width="1.218" style="mix-blend-mode: multiply;isolation: isolate"/>
    <path id="Path_2979" data-name="Path 2979" d="M-239.03,392.822h-44.2l-8.258-61.542h60.718Z" transform="translate(506.335 375.987)" fill="url(#linear-gradient-10)"/>
    <rect id="Rectangle_1817" data-name="Rectangle 1817" width="65.032" height="9.166" rx="3.075" transform="translate(212.892 707.266)" fill="#e56a34"/>
    <g id="Group_2590" data-name="Group 2590" transform="translate(66.473 386.526)">
      <path id="Rectangle_1818" data-name="Rectangle 1818" d="M16.633,0H87.32a16.633,16.633,0,0,1,16.633,16.633V42.355a0,0,0,0,1,0,0H16.633A16.633,16.633,0,0,1,0,25.722v-9.09A16.633,16.633,0,0,1,16.633,0Z" transform="translate(0 0)" fill="url(#linear-gradient-11)"/>
      <line id="Line_268" data-name="Line 268" x1="45.657" transform="translate(41.76 13.996)" fill="none" stroke="#fff" stroke-linecap="round" stroke-miterlimit="10" stroke-width="1.569"/>
      <line id="Line_269" data-name="Line 269" x1="45.657" transform="translate(41.76 21.177)" fill="none" stroke="#fff" stroke-linecap="round" stroke-miterlimit="10" stroke-width="1.569"/>
      <line id="Line_270" data-name="Line 270" x1="19.541" transform="translate(67.876 28.359)" fill="none" stroke="#fff" stroke-linecap="round" stroke-miterlimit="10" stroke-width="1.569"/>
      <ellipse id="Ellipse_557" data-name="Ellipse 557" cx="10.362" cy="10.362" rx="10.362" ry="10.362" transform="translate(12.382 10.815)" fill="none" stroke="#fff" stroke-linecap="round" stroke-miterlimit="10" stroke-width="1.569"/>
    </g>
    <path id="Path_2980" data-name="Path 2980" d="M-389.273,209.966a8.387,8.387,0,0,0,8.387,8.387,8.387,8.387,0,0,0,8.387-8.387,8.387,8.387,0,0,0-8.387-8.387A8.387,8.387,0,0,0-389.273,209.966Zm4.461,0a3.926,3.926,0,0,1,3.925-3.925,3.926,3.926,0,0,1,3.925,3.925,3.926,3.926,0,0,1-3.925,3.927A3.926,3.926,0,0,1-384.812,209.966Z" transform="translate(459.14 340.547)" fill="url(#linear-gradient-12)"/>
    <rect id="Rectangle_1819" data-name="Rectangle 1819" width="21.99" height="25.908" rx="2.97" transform="translate(78.253 537.559)" fill="url(#linear-gradient-12)"/>
    <path id="Path_2981" data-name="Path 2981" d="M-388.434,200.09s-5.838-3.759-2.608-11.93-2.147-11.4-2.147-11.4" transform="translate(480.059 333.766)" fill="none" stroke="#707070" stroke-miterlimit="10" stroke-width="0.621"/>
    <path id="Path_2982" data-name="Path 2982" d="M-387.965,173.968c-3.783,7.252.837,11,.837,11" transform="translate(474 333.003)" fill="none" stroke="#707070" stroke-miterlimit="10" stroke-width="0.621"/>
    <path id="Path_2983" data-name="Path 2983" d="M-392.576,196.721s-4.882-4.938.047-12.213q.191-.281.363-.558" transform="translate(485.757 335.73)" fill="none" stroke="#707070" stroke-miterlimit="10" stroke-width="0.621"/>
    <g id="Group_2597" data-name="Group 2597" transform="translate(18.15 563.687)">
      <rect id="Rectangle_1825" data-name="Rectangle 1825" width="319.672" height="4.34" rx="1.704" fill="url(#linear-gradient-14)"/>
      <g id="Group_2596" data-name="Group 2596" transform="translate(0.454 4.266)">
        <g id="Group_2593" data-name="Group 2593" transform="translate(281.319 0.453)">
          <path id="Path_2988" data-name="Path 2988" d="M-187.769,422.622l-30.43-200.4h-6.471l31.689,200.4Z" transform="translate(224.67 -222.22)" fill="url(#linear-gradient-15)"/>
        </g>
        <g id="Group_2594" data-name="Group 2594" transform="translate(0)">
          <path id="Path_2989" data-name="Path 2989" d="M-445.617,422.266l30.43-200.4h6.471l-31.689,200.4Z" transform="translate(445.617 -221.864)" fill="url(#linear-gradient-16)"/>
        </g>
        <g id="Group_2595" data-name="Group 2595" transform="translate(28.443 0.073)" opacity="0.72" style="mix-blend-mode: multiply;isolation: isolate">
          <path id="Path_2990" data-name="Path 2990" d="M-416.888,234.8l2.045-12.882h-6.471l-1.964,12.882Z" transform="translate(423.278 -221.922)" fill="#2ce5c2"/>
        </g>
      </g>
      <path id="Path_2991" data-name="Path 2991" d="M-216.374,234.775l-1.964-12.911h-6.471l2.045,12.911Z" transform="translate(506.405 -217.598)" fill="#2ce5c2"/>
    </g>
    <path id="Rectangle_1826" data-name="Rectangle 1826" d="M5.924,0H39.761a5.924,5.924,0,0,1,5.924,5.924V8.348a2.944,2.944,0,0,1-2.944,2.944H2.944A2.944,2.944,0,0,1,0,8.348V5.924A5.924,5.924,0,0,1,5.924,0Z" transform="translate(281.121 552.229)" fill="url(#linear-gradient-17)"/>
  </g>
</svg>
