<svg xmlns="http://www.w3.org/2000/svg" viewBox="0 0 692 400" width="692" height="400" preserveAspectRatio="xMidYMid meet" style="width: 100%; height: 100%; transform: translate3d(0px, 0px, 0px);"><defs><clipPath id="__lottie_element_11"><rect width="692" height="400" x="0" y="0"></rect></clipPath></defs><g clip-path="url(#__lottie_element_11)"><g transform="matrix(1,0,0,1,536.3900146484375,263.30499267578125)" opacity="1" style="display: block;"><g opacity="1" transform="matrix(1,0,0,1,0,0)"><path fill="rgb(225,225,225)" fill-opacity="0.34902" d=" M153.83599853515625,78.61900329589844 C153.83599853515625,78.61900329589844 153.83599853515625,83.86000061035156 153.83599853515625,83.86000061035156 C153.83599853515625,83.86000061035156 143.5800018310547,93.29499816894531 143.5800018310547,93.29499816894531 C143.5800018310547,93.29499816894531 139.73500061035156,90.1500015258789 139.73500061035156,90.1500015258789 C139.73500061035156,90.1500015258789 153.83599853515625,78.61900329589844 153.83599853515625,78.61900329589844z M79.48200225830078,30.399999618530273 C79.48200225830078,30.399999618530273 79.48200225830078,37.737998962402344 79.48200225830078,37.737998962402344 C79.48200225830078,37.737998962402344 83.3270034790039,40.88199996948242 83.3270034790039,40.88199996948242 C83.3270034790039,40.88199996948242 89.73699951171875,40.88199996948242 89.73699951171875,40.88199996948242 C89.73699951171875,40.88199996948242 92.3010025024414,38.7859992980957 92.3010025024414,38.7859992980957 C92.3010025024414,38.7859992980957 92.3010025024414,30.399999618530273 92.3010025024414,30.399999618530273 C92.3010025024414,30.399999618530273 97.42900085449219,30.399999618530273 97.42900085449219,30.399999618530273 C97.42900085449219,30.399999618530273 97.42900085449219,35.64099884033203 97.42900085449219,35.64099884033203 C97.42900085449219,35.64099884033203 99.99299621582031,36.68899917602539 99.99299621582031,36.68899917602539 C99.99299621582031,36.68899917602539 99.99299621582031,44.027000427246094 99.99299621582031,44.027000427246094 C99.99299621582031,44.027000427246094 115.37699890136719,55.55799865722656 115.37699890136719,55.55799865722656 C115.37699890136719,55.55799865722656 115.37699890136719,69.18499755859375 115.37699890136719,69.18499755859375 C115.37699890136719,69.18499755859375 103.83899688720703,78.61900329589844 103.83899688720703,78.61900329589844 C103.83899688720703,78.61900329589844 91.0199966430664,78.61900329589844 91.0199966430664,78.61900329589844 C91.0199966430664,78.61900329589844 75.63600158691406,64.99199676513672 75.63600158691406,64.99199676513672 C75.63600158691406,64.99199676513672 65.37999725341797,64.99199676513672 65.37999725341797,64.99199676513672 C65.37999725341797,64.99199676513672 58.970001220703125,71.28199768066406 58.970001220703125,71.28199768066406 C58.970001220703125,71.28199768066406 46.1510009765625,71.28199768066406 46.1510009765625,71.28199768066406 C46.1510009765625,71.28199768066406 39.7400016784668,64.99199676513672 39.7400016784668,64.99199676513672 C39.7400016784668,64.99199676513672 38.45899963378906,64.99199676513672 38.45899963378906,64.99199676513672 C38.45899963378906,64.99199676513672 38.45899963378906,50.68199920654297 38.45899963378906,50.68199920654297 C38.45899963378906,50.68199920654297 38.45899963378906,50.316001892089844 38.45899963378906,50.316001892089844 C43.39099884033203,47.893001556396484 46.1510009765625,44.027000427246094 46.1510009765625,44.027000427246094 C46.1510009765625,44.027000427246094 56.40599822998047,44.027000427246094 56.40599822998047,44.027000427246094 C56.40599822998047,44.027000427246094 56.40599822998047,38.7859992980957 56.40599822998047,38.7859992980957 C56.40599822998047,38.7859992980957 67.23999786376953,30.444000244140625 67.23999786376953,30.444000244140625 C67.23999786376953,30.444000244140625 79.48200225830078,30.399999618530273 79.48200225830078,30.399999618530273z M71.79000091552734,13.628000259399414 C71.79000091552734,13.628000259399414 71.79000091552734,10.482999801635742 71.79000091552734,10.482999801635742 C71.79000091552734,10.482999801635742 73.0719985961914,10.482999801635742 73.0719985961914,10.482999801635742 C73.0719985961914,10.482999801635742 73.0719985961914,9.434000015258789 73.0719985961914,9.434000015258789 C73.0719985961914,9.434000015258789 76.91799926757812,9.434000015258789 76.91799926757812,9.434000015258789 C76.91799926757812,9.434000015258789 83.3270034790039,14.675000190734863 83.3270034790039,14.675000190734863 C83.3270034790039,14.675000190734863 97.42900085449219,11.531000137329102 97.42900085449219,11.531000137329102 C97.42900085449219,11.531000137329102 102.55699920654297,16.77199935913086 102.55699920654297,16.77199935913086 C102.55699920654297,16.77199935913086 103.83899688720703,16.77199935913086 103.83899688720703,16.77199935913086 C103.83899688720703,16.77199935913086 103.83899688720703,20.96500015258789 103.83899688720703,20.96500015258789 C103.83899688720703,20.96500015258789 105.12100219726562,20.96500015258789 105.12100219726562,20.96500015258789 C105.12100219726562,20.96500015258789 111.53099822998047,28.30299949645996 111.53099822998047,28.30299949645996 C111.53099822998047,28.30299949645996 110.2490005493164,29.35099983215332 110.2490005493164,29.35099983215332 C110.2490005493164,29.35099983215332 103.83899688720703,24.110000610351562 103.83899688720703,24.110000610351562 C103.83899688720703,24.110000610351562 89.73699951171875,24.110000610351562 89.73699951171875,24.110000610351562 C89.73699951171875,24.110000610351562 88.45500183105469,22.013999938964844 88.45500183105469,22.013999938964844 C88.45500183105469,22.013999938964844 79.48200225830078,15.723999977111816 79.48200225830078,15.723999977111816 C79.48200225830078,15.723999977111816 78.1989974975586,13.628000259399414 78.1989974975586,13.628000259399414 C78.1989974975586,13.628000259399414 71.79000091552734,13.628000259399414 71.79000091552734,13.628000259399414z M0,2.0969998836517334 C0,2.0969998836517334 6.409999847412109,2.0969998836517334 6.409999847412109,2.0969998836517334 C9.777000427246094,6.710000038146973 20.298999786376953,13.715999603271484 20.298999786376953,13.715999603271484 C20.298999786376953,13.715999603271484 20.52400016784668,19.895000457763672 20.51099967956543,19.91699981689453 C20.51099967956543,19.91699981689453 16.665000915527344,19.91699981689453 16.665000915527344,19.91699981689453 C16.665000915527344,19.91699981689453 12.819000244140625,15.723999977111816 12.819000244140625,15.723999977111816 C12.819000244140625,15.723999977111816 12.819000244140625,12.579000473022461 12.819000244140625,12.579000473022461 C12.819000244140625,12.579000473022461 0,2.0969998836517334 0,2.0969998836517334z M48.7140007019043,0 C48.7140007019043,0 48.7140007019043,13.628000259399414 48.7140007019043,13.628000259399414 C48.7140007019043,13.628000259399414 44.86899948120117,16.77199935913086 44.86899948120117,16.77199935913086 C44.86899948120117,16.77199935913086 38.45899963378906,16.77199935913086 38.45899963378906,16.77199935913086 C38.45899963378906,16.77199935913086 30.767000198364258,11.531000137329102 30.767000198364258,11.531000137329102 C30.767000198364258,11.531000137329102 30.913999557495117,9.354000091552734 30.767000198364258,7.3379998207092285 C30.767000198364258,7.3379998207092285 35.89500045776367,7.3379998207092285 35.89500045776367,7.3379998207092285 C35.89500045776367,7.3379998207092285 43.58700180053711,0 43.58700180053711,0 C43.58700180053711,0 47.42300033569336,0.12099999934434891 48.7140007019043,0z"></path><path stroke-linecap="round" stroke-linejoin="miter" fill-opacity="0" stroke-miterlimit="4" stroke-dasharray=" 0 5" stroke-dashoffset="0" stroke="rgb(127,127,127)" stroke-opacity="1" stroke-width="2" d=" M153.83599853515625,78.61900329589844 C153.83599853515625,78.61900329589844 153.83599853515625,83.86000061035156 153.83599853515625,83.86000061035156 C153.83599853515625,83.86000061035156 143.5800018310547,93.29499816894531 143.5800018310547,93.29499816894531 C143.5800018310547,93.29499816894531 139.73500061035156,90.1500015258789 139.73500061035156,90.1500015258789 C139.73500061035156,90.1500015258789 153.83599853515625,78.61900329589844 153.83599853515625,78.61900329589844z M79.48200225830078,30.399999618530273 C79.48200225830078,30.399999618530273 79.48200225830078,37.737998962402344 79.48200225830078,37.737998962402344 C79.48200225830078,37.737998962402344 83.3270034790039,40.88199996948242 83.3270034790039,40.88199996948242 C83.3270034790039,40.88199996948242 89.73699951171875,40.88199996948242 89.73699951171875,40.88199996948242 C89.73699951171875,40.88199996948242 92.3010025024414,38.7859992980957 92.3010025024414,38.7859992980957 C92.3010025024414,38.7859992980957 92.3010025024414,30.399999618530273 92.3010025024414,30.399999618530273 C92.3010025024414,30.399999618530273 97.42900085449219,30.399999618530273 97.42900085449219,30.399999618530273 C97.42900085449219,30.399999618530273 97.42900085449219,35.64099884033203 97.42900085449219,35.64099884033203 C97.42900085449219,35.64099884033203 99.99299621582031,36.68899917602539 99.99299621582031,36.68899917602539 C99.99299621582031,36.68899917602539 99.99299621582031,44.027000427246094 99.99299621582031,44.027000427246094 C99.99299621582031,44.027000427246094 115.37699890136719,55.55799865722656 115.37699890136719,55.55799865722656 C115.37699890136719,55.55799865722656 115.37699890136719,69.18499755859375 115.37699890136719,69.18499755859375 C115.37699890136719,69.18499755859375 103.83899688720703,78.61900329589844 103.83899688720703,78.61900329589844 C103.83899688720703,78.61900329589844 91.0199966430664,78.61900329589844 91.0199966430664,78.61900329589844 C91.0199966430664,78.61900329589844 75.63600158691406,64.99199676513672 75.63600158691406,64.99199676513672 C75.63600158691406,64.99199676513672 65.37999725341797,64.99199676513672 65.37999725341797,64.99199676513672 C65.37999725341797,64.99199676513672 58.970001220703125,71.28199768066406 58.970001220703125,71.28199768066406 C58.970001220703125,71.28199768066406 46.1510009765625,71.28199768066406 46.1510009765625,71.28199768066406 C46.1510009765625,71.28199768066406 39.7400016784668,64.99199676513672 39.7400016784668,64.99199676513672 C39.7400016784668,64.99199676513672 38.45899963378906,64.99199676513672 38.45899963378906,64.99199676513672 C38.45899963378906,64.99199676513672 38.45899963378906,50.68199920654297 38.45899963378906,50.68199920654297 C38.45899963378906,50.68199920654297 38.45899963378906,50.316001892089844 38.45899963378906,50.316001892089844 C43.39099884033203,47.893001556396484 46.1510009765625,44.027000427246094 46.1510009765625,44.027000427246094 C46.1510009765625,44.027000427246094 56.40599822998047,44.027000427246094 56.40599822998047,44.027000427246094 C56.40599822998047,44.027000427246094 56.40599822998047,38.7859992980957 56.40599822998047,38.7859992980957 C56.40599822998047,38.7859992980957 67.23999786376953,30.444000244140625 67.23999786376953,30.444000244140625 C67.23999786376953,30.444000244140625 79.48200225830078,30.399999618530273 79.48200225830078,30.399999618530273z M71.79000091552734,13.628000259399414 C71.79000091552734,13.628000259399414 71.79000091552734,10.482999801635742 71.79000091552734,10.482999801635742 C71.79000091552734,10.482999801635742 73.0719985961914,10.482999801635742 73.0719985961914,10.482999801635742 C73.0719985961914,10.482999801635742 73.0719985961914,9.434000015258789 73.0719985961914,9.434000015258789 C73.0719985961914,9.434000015258789 76.91799926757812,9.434000015258789 76.91799926757812,9.434000015258789 C76.91799926757812,9.434000015258789 83.3270034790039,14.675000190734863 83.3270034790039,14.675000190734863 C83.3270034790039,14.675000190734863 97.42900085449219,11.531000137329102 97.42900085449219,11.531000137329102 C97.42900085449219,11.531000137329102 102.55699920654297,16.77199935913086 102.55699920654297,16.77199935913086 C102.55699920654297,16.77199935913086 103.83899688720703,16.77199935913086 103.83899688720703,16.77199935913086 C103.83899688720703,16.77199935913086 103.83899688720703,20.96500015258789 103.83899688720703,20.96500015258789 C103.83899688720703,20.96500015258789 105.12100219726562,20.96500015258789 105.12100219726562,20.96500015258789 C105.12100219726562,20.96500015258789 111.53099822998047,28.30299949645996 111.53099822998047,28.30299949645996 C111.53099822998047,28.30299949645996 110.2490005493164,29.35099983215332 110.2490005493164,29.35099983215332 C110.2490005493164,29.35099983215332 103.83899688720703,24.110000610351562 103.83899688720703,24.110000610351562 C103.83899688720703,24.110000610351562 89.73699951171875,24.110000610351562 89.73699951171875,24.110000610351562 C89.73699951171875,24.110000610351562 88.45500183105469,22.013999938964844 88.45500183105469,22.013999938964844 C88.45500183105469,22.013999938964844 79.48200225830078,15.723999977111816 79.48200225830078,15.723999977111816 C79.48200225830078,15.723999977111816 78.1989974975586,13.628000259399414 78.1989974975586,13.628000259399414 C78.1989974975586,13.628000259399414 71.79000091552734,13.628000259399414 71.79000091552734,13.628000259399414z M0,2.0969998836517334 C0,2.0969998836517334 6.409999847412109,2.0969998836517334 6.409999847412109,2.0969998836517334 C9.777000427246094,6.710000038146973 20.298999786376953,13.715999603271484 20.298999786376953,13.715999603271484 C20.298999786376953,13.715999603271484 20.52400016784668,19.895000457763672 20.51099967956543,19.91699981689453 C20.51099967956543,19.91699981689453 16.665000915527344,19.91699981689453 16.665000915527344,19.91699981689453 C16.665000915527344,19.91699981689453 12.819000244140625,15.723999977111816 12.819000244140625,15.723999977111816 C12.819000244140625,15.723999977111816 12.819000244140625,12.579000473022461 12.819000244140625,12.579000473022461 C12.819000244140625,12.579000473022461 0,2.0969998836517334 0,2.0969998836517334z M48.7140007019043,0 C48.7140007019043,0 48.7140007019043,13.628000259399414 48.7140007019043,13.628000259399414 C48.7140007019043,13.628000259399414 44.86899948120117,16.77199935913086 44.86899948120117,16.77199935913086 C44.86899948120117,16.77199935913086 38.45899963378906,16.77199935913086 38.45899963378906,16.77199935913086 C38.45899963378906,16.77199935913086 30.767000198364258,11.531000137329102 30.767000198364258,11.531000137329102 C30.767000198364258,11.531000137329102 30.913999557495117,9.354000091552734 30.767000198364258,7.3379998207092285 C30.767000198364258,7.3379998207092285 35.89500045776367,7.3379998207092285 35.89500045776367,7.3379998207092285 C35.89500045776367,7.3379998207092285 43.58700180053711,0 43.58700180053711,0 C43.58700180053711,0 47.42300033569336,0.12099999934434891 48.7140007019043,0z"></path></g></g><g transform="matrix(1,0,0,1,329.5500183105469,117.59300231933594)" opacity="1" style="display: block;"><g opacity="1" transform="matrix(1,0,0,1,0,0)"><path fill="rgb(225,225,225)" fill-opacity="0.34902" d=" M206.7519989013672,0 C206.7519989013672,0 206.7519989013672,3.693000078201294 206.7519989013672,3.693000078201294 C203.60400390625,5.105000019073486 198.843994140625,11.07800006866455 198.843994140625,11.07800006866455 C198.843994140625,11.07800006866455 204.49200439453125,14.770999908447266 204.49200439453125,14.770999908447266 C204.49200439453125,14.770999908447266 213.9459991455078,14.770999908447266 221.43899536132812,14.770999908447266 C221.43899536132812,14.770999908447266 279.0580139160156,14.770999908447266 279.0580139160156,14.770999908447266 C281.3179931640625,16.924999237060547 283.5769958496094,19.07900047302246 285.8370056152344,21.232999801635742 C285.8370056152344,21.232999801635742 328.7690124511719,21.232999801635742 328.7690124511719,21.232999801635742 C328.7690124511719,21.232999801635742 328.7690124511719,29.541000366210938 328.7690124511719,29.541000366210938 C323.49798583984375,33.54100036621094 318.2229919433594,37.542999267578125 312.9519958496094,41.542999267578125 C311.822998046875,42.77399826049805 310.6919860839844,44.00400161743164 309.56298828125,45.23500061035156 C309.56298828125,45.23500061035156 298.2650146484375,45.23500061035156 298.2650146484375,45.23500061035156 C298.2650146484375,45.23500061035156 292.6159973144531,45.23500061035156 292.6159973144531,45.23500061035156 C292.6159973144531,45.23500061035156 258.72198486328125,45.23500061035156 258.72198486328125,45.23500061035156 C258.72198486328125,45.23500061035156 249.6840057373047,52.619998931884766 249.6840057373047,52.619998931884766 C249.6840057373047,52.619998931884766 249.66000366210938,56.569000244140625 249.6840057373047,60.00600051879883 C249.6840057373047,60.00600051879883 255.33299255371094,60.00600051879883 255.33299255371094,60.00600051879883 C255.33299255371094,60.00600051879883 255.33299255371094,69.23699951171875 255.33299255371094,69.23699951171875 C248.93099975585938,74.16000366210938 236.12600708007812,84.00800323486328 236.12600708007812,84.00800323486328 C236.12600708007812,84.00800323486328 236.14300537109375,91.9219970703125 236.14300537109375,91.9219970703125 C236.14300537109375,91.9219970703125 229.34800720214844,94.16200256347656 229.34800720214844,94.16200256347656 C229.34800720214844,94.16200256347656 229.34800720214844,87.69999694824219 229.34800720214844,87.69999694824219 C227.9320068359375,86.96700286865234 224.82899475097656,83.08399963378906 224.82899475097656,83.08399963378906 C224.82899475097656,83.08399963378906 220.3090057373047,84.00800323486328 220.3090057373047,84.00800323486328 C220.3090057373047,84.00800323486328 217.9250030517578,83.83200073242188 216.9199981689453,86.7770004272461 C216.87600708007812,86.90699768066406 216.83799743652344,87.04900360107422 216.80499267578125,87.2040023803711 C216.38999938964844,89.16000366210938 216.9199981689453,95.08599853515625 216.9199981689453,95.08599853515625 C216.9199981689453,95.08599853515625 222.56900024414062,104.31800079345703 222.56900024414062,104.31800079345703 C222.56900024414062,104.31800079345703 213.52999877929688,111.08799743652344 209.01199340820312,114.47200012207031 C208.25900268554688,115.3949966430664 207.5050048828125,116.31800079345703 206.7519989013672,117.24099731445312 C206.7519989013672,117.24099731445312 196.58299255371094,117.24099731445312 196.58299255371094,117.24099731445312 C196.58299255371094,117.24099731445312 196.58299255371094,121.85700225830078 196.58299255371094,121.85700225830078 C201.08399963378906,123.83899688720703 203.45599365234375,126.03099822998047 203.36300659179688,132.01199340820312 C200.04400634765625,133.58900451660156 200.1280059814453,134.68099975585938 194.32400512695312,134.781005859375 C192.66700744628906,132.27099609375 190.8459930419922,130.56199645996094 186.4149932861328,130.1649932861328 C186.4149932861328,130.1649932861328 186.4149932861328,136.6280059814453 186.4149932861328,136.6280059814453 C190.15499877929688,138.281005859375 194.0749969482422,141.17999267578125 194.32400512695312,145.85899353027344 C194.32400512695312,145.85899353027344 192.06399536132812,145.85899353027344 192.06399536132812,145.85899353027344 C190.55799865722656,144.32000732421875 189.052001953125,142.78199768066406 187.54600524902344,141.2429962158203 C187.54600524902344,141.2429962158203 186.4149932861328,141.2429962158203 186.4149932861328,141.2429962158203 C186.4149932861328,141.2429962158203 186.4149932861328,138.4739990234375 186.4149932861328,138.4739990234375 C185.28500366210938,137.85800170898438 184.15699768066406,137.2429962158203 183.02699279785156,136.6280059814453 C183.02699279785156,136.6280059814453 183.02699279785156,123.7030029296875 183.02699279785156,123.7030029296875 C183.02699279785156,123.7030029296875 177.3780059814453,123.7030029296875 177.3780059814453,123.7030029296875 C174.36500549316406,120.93399810791016 171.3509979248047,118.16300201416016 168.33900451660156,115.3949966430664 C168.33900451660156,115.3949966430664 161.56100463867188,115.3949966430664 161.56100463867188,115.3949966430664 C161.54800415039062,120.87200164794922 158.95700073242188,121.822998046875 155.91099548339844,124.62699890136719 C155.1580047607422,124.93399810791016 154.40499877929688,125.24199676513672 153.65199279785156,125.55000305175781 C152.02499389648438,128.23399353027344 154.43499755859375,131.87399291992188 152.52200317382812,133.85800170898438 C150.3520050048828,136.10699462890625 150.55499267578125,135.68299865722656 145.7429962158203,135.7050018310547 C144.62100219726562,134.1649932861328 140.46400451660156,131.718994140625 140.093994140625,131.08900451660156 C140.093994140625,131.08900451660156 140.093994140625,115.3949966430664 140.093994140625,115.3949966430664 C140.093994140625,115.3949966430664 135.5749969482422,115.3949966430664 135.5749969482422,115.3949966430664 C133.6179962158203,112.51300048828125 128.79600524902344,108.93299865722656 128.79600524902344,108.93299865722656 C128.79600524902344,108.93299865722656 115.67400360107422,108.7750015258789 106.20099639892578,108.93299865722656 C106.07099914550781,108.73999786376953 105.93399810791016,108.5469970703125 105.79100036621094,108.35399627685547 C104.16600036621094,106.16899871826172 98.29199981689453,103.39399719238281 98.29199981689453,103.39399719238281 C98.29199981689453,103.39399719238281 93.77200317382812,105.23999786376953 93.77200317382812,105.23999786376953 C93.77200317382812,105.23999786376953 93.77200317382812,104.31800079345703 93.77200317382812,104.31800079345703 C93.77200317382812,104.31800079345703 90.38400268554688,104.31800079345703 90.38400268554688,104.31800079345703 C90.38400268554688,104.31800079345703 89.25299835205078,102.47100067138672 89.25299835205078,102.47100067138672 C89.25299835205078,102.47100067138672 81.34500122070312,96.93199920654297 81.34500122070312,96.93199920654297 C81.34500122070312,96.93199920654297 76.82599639892578,92.31600189208984 76.82599639892578,92.31600189208984 C76.82599639892578,92.31600189208984 66.65799713134766,92.31600189208984 66.65799713134766,92.31600189208984 C66.65799713134766,92.31600189208984 62.13800048828125,87.69999694824219 62.13800048828125,87.69999694824219 C62.13800048828125,87.69999694824219 54.22999954223633,87.69999694824219 54.22999954223633,87.69999694824219 C54.22999954223633,87.69999694824219 45.19200134277344,79.39199829101562 45.19200134277344,79.39199829101562 C45.19200134277344,79.39199829101562 45.027000427246094,79.2750015258789 44.0620002746582,80.31500244140625 C43.308998107910156,80.62300109863281 41.801998138427734,81.23799896240234 41.801998138427734,81.23799896240234 C41.801998138427734,81.23799896240234 41.801998138427734,83.08399963378906 41.801998138427734,83.08399963378906 C41.801998138427734,83.08399963378906 45.19200134277344,86.7770004272461 45.19200134277344,86.7770004272461 C45.19200134277344,86.7770004272461 43.68600082397461,88.6240005493164 42.93199920654297,89.5469970703125 C41.650001525878906,88.76799774169922 42.768001556396484,89.66400146484375 41.801998138427734,88.6240005493164 C36.30400085449219,85.98300170898438 27.114999771118164,78.46900177001953 27.114999771118164,78.46900177001953 C27.114999771118164,78.46900177001953 13.557999610900879,90.47000122070312 13.557999610900879,90.47000122070312 C13.557999610900879,90.47000122070312 0,90.47000122070312 0,90.47000122070312 C0,90.47000122070312 0,79.39199829101562 0,79.39199829101562 C0,79.39199829101562 4.519000053405762,76.62200164794922 4.519000053405762,76.62200164794922 C4.519000053405762,76.62200164794922 11.29800033569336,76.62200164794922 11.29800033569336,76.62200164794922 C11.29800033569336,76.62200164794922 11.29800033569336,70.16000366210938 11.29800033569336,70.16000366210938 C15.440999984741211,67.08399963378906 19.58300018310547,64.00499725341797 23.72599983215332,60.928001403808594 C24.10300064086914,60.3129997253418 24.479000091552734,59.698001861572266 24.856000900268555,59.08300018310547 C24.856000900268555,59.08300018310547 48.582000732421875,59.08300018310547 48.582000732421875,59.08300018310547 C49.71200180053711,57.85200119018555 50.84000015258789,56.62099838256836 51.970001220703125,55.38999938964844 C51.970001220703125,55.38999938964844 53.099998474121094,55.38999938964844 53.099998474121094,55.38999938964844 C53.099998474121094,55.38999938964844 53.099998474121094,40.61899948120117 53.099998474121094,40.61899948120117 C55.79499816894531,39.417999267578125 57.88999938964844,37.86199951171875 58.75,35.08000183105469 C56.7140007019043,34.20800018310547 56.970001220703125,33.801998138427734 54.22999954223633,33.23400115966797 C51.59299850463867,35.69499969482422 48.957000732421875,38.15800094604492 46.32099914550781,40.61899948120117 C45.56800079345703,40.926998138427734 44.814998626708984,41.23500061035156 44.0620002746582,41.542999267578125 C44.0620002746582,41.542999267578125 44.0620002746582,54.465999603271484 44.0620002746582,54.465999603271484 C44.0620002746582,54.465999603271484 35.02399826049805,54.465999603271484 35.02399826049805,54.465999603271484 C35.02399826049805,54.465999603271484 35.02399826049805,49.849998474121094 35.02399826049805,49.849998474121094 C35.02399826049805,49.849998474121094 22.59600067138672,49.849998474121094 22.59600067138672,49.849998474121094 C22.59600067138672,49.849998474121094 22.59600067138672,40.61899948120117 22.59600067138672,40.61899948120117 C28.6200008392334,36.00400161743164 34.64899826049805,31.38800048828125 40.67300033569336,26.77199935913086 C42.17900085449219,25.232999801635742 43.68600082397461,23.69499969482422 45.19200134277344,22.1560001373291 C45.19200134277344,22.1560001373291 86.99400329589844,22.1560001373291 86.99400329589844,22.1560001373291 C86.99400329589844,22.1560001373291 86.99400329589844,28.618000030517578 86.99400329589844,28.618000030517578 C82.86900329589844,30.631999969482422 83.04900360107422,32.284000396728516 75.69599914550781,32.31100082397461 C75.69599914550781,32.31100082397461 75.69599914550781,39.69599914550781 75.69599914550781,39.69599914550781 C75.69599914550781,39.69599914550781 85.86399841308594,39.69599914550781 85.86399841308594,39.69599914550781 C94.9020004272461,32.00400161743164 103.94100189208984,24.30900001525879 112.97899627685547,16.617000579833984 C112.97899627685547,16.617000579833984 131.05599975585938,16.617000579833984 131.05599975585938,16.617000579833984 C131.05599975585938,16.617000579833984 131.05599975585938,10.154999732971191 131.05599975585938,10.154999732971191 C131.05599975585938,10.154999732971191 170.59800720214844,10.154999732971191 170.59800720214844,10.154999732971191 C174.36399841308594,6.769999980926514 178.13099670410156,3.384999990463257 181.89599609375,0 C181.89599609375,0 206.7519989013672,0 206.7519989013672,0z"></path><path stroke-linecap="round" stroke-linejoin="miter" fill-opacity="0" stroke-miterlimit="4" stroke-dasharray=" 0 5" stroke-dashoffset="0" stroke="rgb(127,127,127)" stroke-opacity="1" stroke-width="2" d=" M206.7519989013672,0 C206.7519989013672,0 206.7519989013672,3.693000078201294 206.7519989013672,3.693000078201294 C203.60400390625,5.105000019073486 198.843994140625,11.07800006866455 198.843994140625,11.07800006866455 C198.843994140625,11.07800006866455 204.49200439453125,14.770999908447266 204.49200439453125,14.770999908447266 C204.49200439453125,14.770999908447266 213.9459991455078,14.770999908447266 221.43899536132812,14.770999908447266 C221.43899536132812,14.770999908447266 279.0580139160156,14.770999908447266 279.0580139160156,14.770999908447266 C281.3179931640625,16.924999237060547 283.5769958496094,19.07900047302246 285.8370056152344,21.232999801635742 C285.8370056152344,21.232999801635742 328.7690124511719,21.232999801635742 328.7690124511719,21.232999801635742 C328.7690124511719,21.232999801635742 328.7690124511719,29.541000366210938 328.7690124511719,29.541000366210938 C323.49798583984375,33.54100036621094 318.2229919433594,37.542999267578125 312.9519958496094,41.542999267578125 C311.822998046875,42.77399826049805 310.6919860839844,44.00400161743164 309.56298828125,45.23500061035156 C309.56298828125,45.23500061035156 298.2650146484375,45.23500061035156 298.2650146484375,45.23500061035156 C298.2650146484375,45.23500061035156 292.6159973144531,45.23500061035156 292.6159973144531,45.23500061035156 C292.6159973144531,45.23500061035156 258.72198486328125,45.23500061035156 258.72198486328125,45.23500061035156 C258.72198486328125,45.23500061035156 249.6840057373047,52.619998931884766 249.6840057373047,52.619998931884766 C249.6840057373047,52.619998931884766 249.66000366210938,56.569000244140625 249.6840057373047,60.00600051879883 C249.6840057373047,60.00600051879883 255.33299255371094,60.00600051879883 255.33299255371094,60.00600051879883 C255.33299255371094,60.00600051879883 255.33299255371094,69.23699951171875 255.33299255371094,69.23699951171875 C248.93099975585938,74.16000366210938 236.12600708007812,84.00800323486328 236.12600708007812,84.00800323486328 C236.12600708007812,84.00800323486328 236.14300537109375,91.9219970703125 236.14300537109375,91.9219970703125 C236.14300537109375,91.9219970703125 229.34800720214844,94.16200256347656 229.34800720214844,94.16200256347656 C229.34800720214844,94.16200256347656 229.34800720214844,87.69999694824219 229.34800720214844,87.69999694824219 C227.9320068359375,86.96700286865234 224.82899475097656,83.08399963378906 224.82899475097656,83.08399963378906 C224.82899475097656,83.08399963378906 220.3090057373047,84.00800323486328 220.3090057373047,84.00800323486328 C220.3090057373047,84.00800323486328 217.9250030517578,83.83200073242188 216.9199981689453,86.7770004272461 C216.87600708007812,86.90699768066406 216.83799743652344,87.04900360107422 216.80499267578125,87.2040023803711 C216.38999938964844,89.16000366210938 216.9199981689453,95.08599853515625 216.9199981689453,95.08599853515625 C216.9199981689453,95.08599853515625 222.56900024414062,104.31800079345703 222.56900024414062,104.31800079345703 C222.56900024414062,104.31800079345703 213.52999877929688,111.08799743652344 209.01199340820312,114.47200012207031 C208.25900268554688,115.3949966430664 207.5050048828125,116.31800079345703 206.7519989013672,117.24099731445312 C206.7519989013672,117.24099731445312 196.58299255371094,117.24099731445312 196.58299255371094,117.24099731445312 C196.58299255371094,117.24099731445312 196.58299255371094,121.85700225830078 196.58299255371094,121.85700225830078 C201.08399963378906,123.83899688720703 203.45599365234375,126.03099822998047 203.36300659179688,132.01199340820312 C200.04400634765625,133.58900451660156 200.1280059814453,134.68099975585938 194.32400512695312,134.781005859375 C192.66700744628906,132.27099609375 190.8459930419922,130.56199645996094 186.4149932861328,130.1649932861328 C186.4149932861328,130.1649932861328 186.4149932861328,136.6280059814453 186.4149932861328,136.6280059814453 C190.15499877929688,138.281005859375 194.0749969482422,141.17999267578125 194.32400512695312,145.85899353027344 C194.32400512695312,145.85899353027344 192.06399536132812,145.85899353027344 192.06399536132812,145.85899353027344 C190.55799865722656,144.32000732421875 189.052001953125,142.78199768066406 187.54600524902344,141.2429962158203 C187.54600524902344,141.2429962158203 186.4149932861328,141.2429962158203 186.4149932861328,141.2429962158203 C186.4149932861328,141.2429962158203 186.4149932861328,138.4739990234375 186.4149932861328,138.4739990234375 C185.28500366210938,137.85800170898438 184.15699768066406,137.2429962158203 183.02699279785156,136.6280059814453 C183.02699279785156,136.6280059814453 183.02699279785156,123.7030029296875 183.02699279785156,123.7030029296875 C183.02699279785156,123.7030029296875 177.3780059814453,123.7030029296875 177.3780059814453,123.7030029296875 C174.36500549316406,120.93399810791016 171.3509979248047,118.16300201416016 168.33900451660156,115.3949966430664 C168.33900451660156,115.3949966430664 161.56100463867188,115.3949966430664 161.56100463867188,115.3949966430664 C161.54800415039062,120.87200164794922 158.95700073242188,121.822998046875 155.91099548339844,124.62699890136719 C155.1580047607422,124.93399810791016 154.40499877929688,125.24199676513672 153.65199279785156,125.55000305175781 C152.02499389648438,128.23399353027344 154.43499755859375,131.87399291992188 152.52200317382812,133.85800170898438 C150.3520050048828,136.10699462890625 150.55499267578125,135.68299865722656 145.7429962158203,135.7050018310547 C144.62100219726562,134.1649932861328 140.46400451660156,131.718994140625 140.093994140625,131.08900451660156 C140.093994140625,131.08900451660156 140.093994140625,115.3949966430664 140.093994140625,115.3949966430664 C140.093994140625,115.3949966430664 135.5749969482422,115.3949966430664 135.5749969482422,115.3949966430664 C133.6179962158203,112.51300048828125 128.79600524902344,108.93299865722656 128.79600524902344,108.93299865722656 C128.79600524902344,108.93299865722656 115.67400360107422,108.7750015258789 106.20099639892578,108.93299865722656 C106.07099914550781,108.73999786376953 105.93399810791016,108.5469970703125 105.79100036621094,108.35399627685547 C104.16600036621094,106.16899871826172 98.29199981689453,103.39399719238281 98.29199981689453,103.39399719238281 C98.29199981689453,103.39399719238281 93.77200317382812,105.23999786376953 93.77200317382812,105.23999786376953 C93.77200317382812,105.23999786376953 93.77200317382812,104.31800079345703 93.77200317382812,104.31800079345703 C93.77200317382812,104.31800079345703 90.38400268554688,104.31800079345703 90.38400268554688,104.31800079345703 C90.38400268554688,104.31800079345703 89.25299835205078,102.47100067138672 89.25299835205078,102.47100067138672 C89.25299835205078,102.47100067138672 81.34500122070312,96.93199920654297 81.34500122070312,96.93199920654297 C81.34500122070312,96.93199920654297 76.82599639892578,92.31600189208984 76.82599639892578,92.31600189208984 C76.82599639892578,92.31600189208984 66.65799713134766,92.31600189208984 66.65799713134766,92.31600189208984 C66.65799713134766,92.31600189208984 62.13800048828125,87.69999694824219 62.13800048828125,87.69999694824219 C62.13800048828125,87.69999694824219 54.22999954223633,87.69999694824219 54.22999954223633,87.69999694824219 C54.22999954223633,87.69999694824219 45.19200134277344,79.39199829101562 45.19200134277344,79.39199829101562 C45.19200134277344,79.39199829101562 45.027000427246094,79.2750015258789 44.0620002746582,80.31500244140625 C43.308998107910156,80.62300109863281 41.801998138427734,81.23799896240234 41.801998138427734,81.23799896240234 C41.801998138427734,81.23799896240234 41.801998138427734,83.08399963378906 41.801998138427734,83.08399963378906 C41.801998138427734,83.08399963378906 45.19200134277344,86.7770004272461 45.19200134277344,86.7770004272461 C45.19200134277344,86.7770004272461 43.68600082397461,88.6240005493164 42.93199920654297,89.5469970703125 C41.650001525878906,88.76799774169922 42.768001556396484,89.66400146484375 41.801998138427734,88.6240005493164 C36.30400085449219,85.98300170898438 27.114999771118164,78.46900177001953 27.114999771118164,78.46900177001953 C27.114999771118164,78.46900177001953 13.557999610900879,90.47000122070312 13.557999610900879,90.47000122070312 C13.557999610900879,90.47000122070312 0,90.47000122070312 0,90.47000122070312 C0,90.47000122070312 0,79.39199829101562 0,79.39199829101562 C0,79.39199829101562 4.519000053405762,76.62200164794922 4.519000053405762,76.62200164794922 C4.519000053405762,76.62200164794922 11.29800033569336,76.62200164794922 11.29800033569336,76.62200164794922 C11.29800033569336,76.62200164794922 11.29800033569336,70.16000366210938 11.29800033569336,70.16000366210938 C15.440999984741211,67.08399963378906 19.58300018310547,64.00499725341797 23.72599983215332,60.928001403808594 C24.10300064086914,60.3129997253418 24.479000091552734,59.698001861572266 24.856000900268555,59.08300018310547 C24.856000900268555,59.08300018310547 48.582000732421875,59.08300018310547 48.582000732421875,59.08300018310547 C49.71200180053711,57.85200119018555 50.84000015258789,56.62099838256836 51.970001220703125,55.38999938964844 C51.970001220703125,55.38999938964844 53.099998474121094,55.38999938964844 53.099998474121094,55.38999938964844 C53.099998474121094,55.38999938964844 53.099998474121094,40.61899948120117 53.099998474121094,40.61899948120117 C55.79499816894531,39.417999267578125 57.88999938964844,37.86199951171875 58.75,35.08000183105469 C56.7140007019043,34.20800018310547 56.970001220703125,33.801998138427734 54.22999954223633,33.23400115966797 C51.59299850463867,35.69499969482422 48.957000732421875,38.15800094604492 46.32099914550781,40.61899948120117 C45.56800079345703,40.926998138427734 44.814998626708984,41.23500061035156 44.0620002746582,41.542999267578125 C44.0620002746582,41.542999267578125 44.0620002746582,54.465999603271484 44.0620002746582,54.465999603271484 C44.0620002746582,54.465999603271484 35.02399826049805,54.465999603271484 35.02399826049805,54.465999603271484 C35.02399826049805,54.465999603271484 35.02399826049805,49.849998474121094 35.02399826049805,49.849998474121094 C35.02399826049805,49.849998474121094 22.59600067138672,49.849998474121094 22.59600067138672,49.849998474121094 C22.59600067138672,49.849998474121094 22.59600067138672,40.61899948120117 22.59600067138672,40.61899948120117 C28.6200008392334,36.00400161743164 34.64899826049805,31.38800048828125 40.67300033569336,26.77199935913086 C42.17900085449219,25.232999801635742 43.68600082397461,23.69499969482422 45.19200134277344,22.1560001373291 C45.19200134277344,22.1560001373291 86.99400329589844,22.1560001373291 86.99400329589844,22.1560001373291 C86.99400329589844,22.1560001373291 86.99400329589844,28.618000030517578 86.99400329589844,28.618000030517578 C82.86900329589844,30.631999969482422 83.04900360107422,32.284000396728516 75.69599914550781,32.31100082397461 C75.69599914550781,32.31100082397461 75.69599914550781,39.69599914550781 75.69599914550781,39.69599914550781 C75.69599914550781,39.69599914550781 85.86399841308594,39.69599914550781 85.86399841308594,39.69599914550781 C94.9020004272461,32.00400161743164 103.94100189208984,24.30900001525879 112.97899627685547,16.617000579833984 C112.97899627685547,16.617000579833984 131.05599975585938,16.617000579833984 131.05599975585938,16.617000579833984 C131.05599975585938,16.617000579833984 131.05599975585938,10.154999732971191 131.05599975585938,10.154999732971191 C131.05599975585938,10.154999732971191 170.59800720214844,10.154999732971191 170.59800720214844,10.154999732971191 C174.36399841308594,6.769999980926514 178.13099670410156,3.384999990463257 181.89599609375,0 C181.89599609375,0 206.7519989013672,0 206.7519989013672,0z"></path></g></g><g transform="matrix(1,0,0,1,307.73699951171875,218.6840057373047)" opacity="1" style="display: block;"><g opacity="1" transform="matrix(1,0,0,1,0,0)"><path fill="rgb(225,225,225)" fill-opacity="0.34902" d=" M129.43800354003906,21.93400001525879 C129.43800354003906,21.93400001525879 129.43800354003906,26.70199966430664 129.43800354003906,26.70199966430664 C129.43800354003906,26.70199966430664 117.25499725341797,35.36899948120117 117.25499725341797,35.36899948120117 C117.25499725341797,35.36899948120117 113.11299896240234,36.237998962402344 113.11299896240234,36.237998962402344 C113.11299896240234,36.237998962402344 99.11900329589844,24.795000076293945 99.11900329589844,24.795000076293945 C99.11900329589844,24.795000076293945 99.12799835205078,20.23699951171875 99.11900329589844,17.166000366210938 C99.11900329589844,17.166000366210938 93.28800201416016,17.166000366210938 93.28800201416016,17.166000366210938 C93.28800201416016,17.166000366210938 93.28800201416016,32.42399978637695 93.28800201416016,32.42399978637695 C96.88400268554688,34.45000076293945 104.94999694824219,41.959999084472656 104.94999694824219,41.959999084472656 C104.94999694824219,41.959999084472656 115.44400024414062,41.959999084472656 115.44400024414062,41.959999084472656 C115.44400024414062,41.959999084472656 115.44400024414062,48.63600158691406 115.44400024414062,48.63600158691406 C115.44400024414062,48.63600158691406 99.11900329589844,61.98699951171875 99.11900329589844,61.98699951171875 C99.11900329589844,61.98699951171875 97.75399780273438,73.87999725341797 97.9530029296875,82.01300048828125 C92.96600341796875,84.55699920654297 86.29199981689453,90.59600067138672 86.29199981689453,90.59600067138672 C86.29199981689453,90.59600067138672 86.08200073242188,98.63400268554688 86.29199981689453,104.9010009765625 C81.31300354003906,107.71099853515625 75.7969970703125,113.48300170898438 75.7969970703125,113.48300170898438 C75.7969970703125,113.48300170898438 64.13600158691406,113.48300170898438 64.13600158691406,113.48300170898438 C64.13600158691406,113.48300170898438 53.64099884033203,104.9010009765625 53.64099884033203,104.9010009765625 C53.64099884033203,104.9010009765625 53.64099884033203,76.29100036621094 53.64099884033203,76.29100036621094 C53.64099884033203,76.29100036621094 44.3120002746582,68.66200256347656 44.3120002746582,68.66200256347656 C44.3120002746582,68.66200256347656 44.06700134277344,57.92399978637695 44.3120002746582,50.54399871826172 C44.3120002746582,50.54399871826172 15.15999984741211,50.54399871826172 15.15999984741211,50.54399871826172 C15.15999984741211,50.54399871826172 0,38.145999908447266 0,38.145999908447266 C0,38.145999908447266 0,16.211999893188477 0,16.211999893188477 C0,16.211999893188477 18.658000946044922,1.906999945640564 18.658000946044922,1.906999945640564 C18.658000946044922,1.906999945640564 48.97600173950195,1.906999945640564 48.97600173950195,1.906999945640564 C48.97600173950195,1.906999945640564 55.9739990234375,7.629000186920166 55.9739990234375,7.629000186920166 C55.9739990234375,7.629000186920166 60.63800048828125,4.76800012588501 60.63800048828125,4.76800012588501 C60.63800048828125,4.76800012588501 69.96700286865234,4.76800012588501 69.96700286865234,4.76800012588501 C69.96700286865234,4.76800012588501 73.46499633789062,8.583000183105469 73.46499633789062,8.583000183105469 C73.46499633789062,8.583000183105469 87.45899963378906,8.583000183105469 87.45899963378906,8.583000183105469 C87.45899963378906,8.583000183105469 92.12300109863281,4.76800012588501 92.12300109863281,4.76800012588501 C92.12300109863281,4.76800012588501 93.28800201416016,0 93.28800201416016,0 C93.28800201416016,0 123.60700225830078,21.93400001525879 123.60700225830078,21.93400001525879 C123.60700225830078,21.93400001525879 128.0760040283203,21.89699935913086 129.43800354003906,21.93400001525879z"></path><path stroke-linecap="round" stroke-linejoin="miter" fill-opacity="0" stroke-miterlimit="4" stroke-dasharray=" 0 5" stroke-dashoffset="0" stroke="rgb(127,127,127)" stroke-opacity="1" stroke-width="2" d=" M129.43800354003906,21.93400001525879 C129.43800354003906,21.93400001525879 129.43800354003906,26.70199966430664 129.43800354003906,26.70199966430664 C129.43800354003906,26.70199966430664 117.25499725341797,35.36899948120117 117.25499725341797,35.36899948120117 C117.25499725341797,35.36899948120117 113.11299896240234,36.237998962402344 113.11299896240234,36.237998962402344 C113.11299896240234,36.237998962402344 99.11900329589844,24.795000076293945 99.11900329589844,24.795000076293945 C99.11900329589844,24.795000076293945 99.12799835205078,20.23699951171875 99.11900329589844,17.166000366210938 C99.11900329589844,17.166000366210938 93.28800201416016,17.166000366210938 93.28800201416016,17.166000366210938 C93.28800201416016,17.166000366210938 93.28800201416016,32.42399978637695 93.28800201416016,32.42399978637695 C96.88400268554688,34.45000076293945 104.94999694824219,41.959999084472656 104.94999694824219,41.959999084472656 C104.94999694824219,41.959999084472656 115.44400024414062,41.959999084472656 115.44400024414062,41.959999084472656 C115.44400024414062,41.959999084472656 115.44400024414062,48.63600158691406 115.44400024414062,48.63600158691406 C115.44400024414062,48.63600158691406 99.11900329589844,61.98699951171875 99.11900329589844,61.98699951171875 C99.11900329589844,61.98699951171875 97.75399780273438,73.87999725341797 97.9530029296875,82.01300048828125 C92.96600341796875,84.55699920654297 86.29199981689453,90.59600067138672 86.29199981689453,90.59600067138672 C86.29199981689453,90.59600067138672 86.08200073242188,98.63400268554688 86.29199981689453,104.9010009765625 C81.31300354003906,107.71099853515625 75.7969970703125,113.48300170898438 75.7969970703125,113.48300170898438 C75.7969970703125,113.48300170898438 64.13600158691406,113.48300170898438 64.13600158691406,113.48300170898438 C64.13600158691406,113.48300170898438 53.64099884033203,104.9010009765625 53.64099884033203,104.9010009765625 C53.64099884033203,104.9010009765625 53.64099884033203,76.29100036621094 53.64099884033203,76.29100036621094 C53.64099884033203,76.29100036621094 44.3120002746582,68.66200256347656 44.3120002746582,68.66200256347656 C44.3120002746582,68.66200256347656 44.06700134277344,57.92399978637695 44.3120002746582,50.54399871826172 C44.3120002746582,50.54399871826172 15.15999984741211,50.54399871826172 15.15999984741211,50.54399871826172 C15.15999984741211,50.54399871826172 0,38.145999908447266 0,38.145999908447266 C0,38.145999908447266 0,16.211999893188477 0,16.211999893188477 C0,16.211999893188477 18.658000946044922,1.906999945640564 18.658000946044922,1.906999945640564 C18.658000946044922,1.906999945640564 48.97600173950195,1.906999945640564 48.97600173950195,1.906999945640564 C48.97600173950195,1.906999945640564 55.9739990234375,7.629000186920166 55.9739990234375,7.629000186920166 C55.9739990234375,7.629000186920166 60.63800048828125,4.76800012588501 60.63800048828125,4.76800012588501 C60.63800048828125,4.76800012588501 69.96700286865234,4.76800012588501 69.96700286865234,4.76800012588501 C69.96700286865234,4.76800012588501 73.46499633789062,8.583000183105469 73.46499633789062,8.583000183105469 C73.46499633789062,8.583000183105469 87.45899963378906,8.583000183105469 87.45899963378906,8.583000183105469 C87.45899963378906,8.583000183105469 92.12300109863281,4.76800012588501 92.12300109863281,4.76800012588501 C92.12300109863281,4.76800012588501 93.28800201416016,0 93.28800201416016,0 C93.28800201416016,0 123.60700225830078,21.93400001525879 123.60700225830078,21.93400001525879 C123.60700225830078,21.93400001525879 128.0760040283203,21.89699935913086 129.43800354003906,21.93400001525879z"></path></g></g><g transform="matrix(1,0,0,1,149.00299072265625,108.16600036621094)" opacity="1" style="display: block;"><g opacity="1" transform="matrix(1,0,0,1,0,0)"><path fill="rgb(225,225,225)" fill-opacity="0.34902" d=" M20.389999389648438,12.312999725341797 C20.389999389648438,12.312999725341797 20.389999389648438,22.868000030517578 20.389999389648438,22.868000030517578 C20.389999389648438,22.868000030517578 4.293000221252441,22.868000030517578 4.293000221252441,22.868000030517578 C4.293000221252441,22.868000030517578 4.293000221252441,12.312999725341797 4.293000221252441,12.312999725341797 C4.293000221252441,12.312999725341797 0,12.312999725341797 0,12.312999725341797 C0,12.312999725341797 0,8.795999526977539 0,8.795999526977539 C0,8.795999526977539 8.586000442504883,1.7599999904632568 8.586000442504883,1.7599999904632568 C8.586000442504883,1.7599999904632568 42.926998138427734,1.7599999904632568 42.926998138427734,1.7599999904632568 C42.926998138427734,1.7599999904632568 42.926998138427734,2.6389999389648438 42.926998138427734,2.6389999389648438 C42.926998138427734,2.6389999389648438 31.121999740600586,12.312999725341797 31.121999740600586,12.312999725341797 C31.121999740600586,12.312999725341797 20.389999389648438,12.312999725341797 20.389999389648438,12.312999725341797z M114.83000183105469,0 C114.83000183105469,0 114.83000183105469,36.06100082397461 114.83000183105469,36.06100082397461 C114.83000183105469,36.06100082397461 101.9520034790039,46.6150016784668 101.9520034790039,46.6150016784668 C101.9520034790039,46.6150016784668 93.36599731445312,46.6150016784668 93.36599731445312,46.6150016784668 C88.0009994506836,51.305999755859375 82.63400268554688,55.99700164794922 77.26899719238281,60.6879997253418 C77.26899719238281,60.6879997253418 66.53700256347656,60.6879997253418 66.53700256347656,60.6879997253418 C66.53700256347656,60.6879997253418 57.95100021362305,53.652000427246094 57.95100021362305,53.652000427246094 C57.95100021362305,53.652000427246094 57.95100021362305,33.42300033569336 57.95100021362305,33.42300033569336 C57.95100021362305,33.42300033569336 45.073001861572266,22.868000030517578 45.073001861572266,22.868000030517578 C45.073001861572266,22.868000030517578 26.82900047302246,22.868000030517578 26.82900047302246,22.868000030517578 C26.82900047302246,22.868000030517578 26.82900047302246,16.711000442504883 26.82900047302246,16.711000442504883 C26.82900047302246,16.711000442504883 36.487998962402344,16.711000442504883 36.487998962402344,16.711000442504883 C40.42300033569336,13.192999839782715 44.358001708984375,9.675000190734863 48.292999267578125,6.1570000648498535 C48.292999267578125,6.1570000648498535 74.04900360107422,6.1570000648498535 74.04900360107422,6.1570000648498535 C76.19599914550781,4.105000019073486 78.34100341796875,2.052999973297119 80.48799896240234,0 C80.48799896240234,0 114.83000183105469,0 114.83000183105469,0z"></path><path stroke-linecap="round" stroke-linejoin="miter" fill-opacity="0" stroke-miterlimit="4" stroke-dasharray=" 0 5" stroke-dashoffset="0" stroke="rgb(127,127,127)" stroke-opacity="1" stroke-width="2" d=" M20.389999389648438,12.312999725341797 C20.389999389648438,12.312999725341797 20.389999389648438,22.868000030517578 20.389999389648438,22.868000030517578 C20.389999389648438,22.868000030517578 4.293000221252441,22.868000030517578 4.293000221252441,22.868000030517578 C4.293000221252441,22.868000030517578 4.293000221252441,12.312999725341797 4.293000221252441,12.312999725341797 C4.293000221252441,12.312999725341797 0,12.312999725341797 0,12.312999725341797 C0,12.312999725341797 0,8.795999526977539 0,8.795999526977539 C0,8.795999526977539 8.586000442504883,1.7599999904632568 8.586000442504883,1.7599999904632568 C8.586000442504883,1.7599999904632568 42.926998138427734,1.7599999904632568 42.926998138427734,1.7599999904632568 C42.926998138427734,1.7599999904632568 42.926998138427734,2.6389999389648438 42.926998138427734,2.6389999389648438 C42.926998138427734,2.6389999389648438 31.121999740600586,12.312999725341797 31.121999740600586,12.312999725341797 C31.121999740600586,12.312999725341797 20.389999389648438,12.312999725341797 20.389999389648438,12.312999725341797z M114.83000183105469,0 C114.83000183105469,0 114.83000183105469,36.06100082397461 114.83000183105469,36.06100082397461 C114.83000183105469,36.06100082397461 101.9520034790039,46.6150016784668 101.9520034790039,46.6150016784668 C101.9520034790039,46.6150016784668 93.36599731445312,46.6150016784668 93.36599731445312,46.6150016784668 C88.0009994506836,51.305999755859375 82.63400268554688,55.99700164794922 77.26899719238281,60.6879997253418 C77.26899719238281,60.6879997253418 66.53700256347656,60.6879997253418 66.53700256347656,60.6879997253418 C66.53700256347656,60.6879997253418 57.95100021362305,53.652000427246094 57.95100021362305,53.652000427246094 C57.95100021362305,53.652000427246094 57.95100021362305,33.42300033569336 57.95100021362305,33.42300033569336 C57.95100021362305,33.42300033569336 45.073001861572266,22.868000030517578 45.073001861572266,22.868000030517578 C45.073001861572266,22.868000030517578 26.82900047302246,22.868000030517578 26.82900047302246,22.868000030517578 C26.82900047302246,22.868000030517578 26.82900047302246,16.711000442504883 26.82900047302246,16.711000442504883 C26.82900047302246,16.711000442504883 36.487998962402344,16.711000442504883 36.487998962402344,16.711000442504883 C40.42300033569336,13.192999839782715 44.358001708984375,9.675000190734863 48.292999267578125,6.1570000648498535 C48.292999267578125,6.1570000648498535 74.04900360107422,6.1570000648498535 74.04900360107422,6.1570000648498535 C76.19599914550781,4.105000019073486 78.34100341796875,2.052999973297119 80.48799896240234,0 C80.48799896240234,0 114.83000183105469,0 114.83000183105469,0z"></path></g></g><g transform="matrix(1,0,0,1,1.001007080078125,147.31800842285156)" opacity="1" style="display: block;"><g opacity="1" transform="matrix(1,0,0,1,0,0)"><path fill="rgb(225,225,225)" fill-opacity="0.34902" d=" M136.98699951171875,0 C136.98699951171875,0 162.31300354003906,0 162.31300354003906,0 C164.3159942626953,2.874000072479248 174.9080047607422,11.48799991607666 178.4290008544922,13.142999649047852 C177.0330047607422,15.140999794006348 175.83599853515625,15.187000274658203 174.97500610351562,17.836999893188477 C177.46600341796875,18.892000198364258 179.22900390625,20.656999588012695 180.7310028076172,22.531999588012695 C180.7310028076172,22.531999588012695 179.5800018310547,22.531999588012695 179.5800018310547,22.531999588012695 C177.66200256347656,24.409000396728516 175.74200439453125,26.28700065612793 173.82400512695312,28.163999557495117 C173.82400512695312,28.163999557495117 171.52200317382812,28.163999557495117 171.52200317382812,28.163999557495117 C171.52200317382812,28.163999557495117 171.52200317382812,27.22599983215332 171.52200317382812,27.22599983215332 C168.06900024414062,24.722999572753906 164.61500549316406,22.218000411987305 161.16200256347656,19.71500015258789 C161.16200256347656,19.71500015258789 161.16200256347656,12.204000473022461 161.16200256347656,12.204000473022461 C158.85899353027344,10.638999938964844 156.5570068359375,9.076000213623047 154.2550048828125,7.511000156402588 C154.2550048828125,7.511000156402588 153.10400390625,5.631999969482422 153.10400390625,5.631999969482422 C153.10400390625,5.631999969482422 136.98699951171875,5.631999969482422 136.98699951171875,5.631999969482422 C136.98699951171875,5.631999969482422 136.98699951171875,0 136.98699951171875,0z M124.3239974975586,0 C124.3239974975586,0 131.2310028076172,0 131.2310028076172,0 C131.2310028076172,0 131.2310028076172,8.449000358581543 131.2310028076172,8.449000358581543 C135.02499389648438,10.307000160217285 136.98699951171875,13.142999649047852 136.98699951171875,13.142999649047852 C136.98699951171875,13.142999649047852 141.12100219726562,13.177000045776367 146.19700622558594,13.142999649047852 C146.19700622558594,13.142999649047852 146.19700622558594,17.836999893188477 146.19700622558594,17.836999893188477 C142.64700317382812,19.44300079345703 132.3820037841797,29.10300064086914 132.3820037841797,29.10300064086914 C132.3820037841797,29.10300064086914 132.3820037841797,38.49100112915039 132.3820037841797,38.49100112915039 C132.3820037841797,38.49100112915039 146.19700622558594,48.81800079345703 146.19700622558594,48.81800079345703 C146.19700622558594,48.81800079345703 155.406005859375,48.81800079345703 155.406005859375,48.81800079345703 C155.406005859375,48.81800079345703 155.406005859375,30.04199981689453 155.406005859375,30.04199981689453 C155.406005859375,30.04199981689453 166.91700744628906,30.04199981689453 166.91700744628906,30.04199981689453 C166.91700744628906,30.04199981689453 176.27699279785156,36.74300003051758 180.7310028076172,40.36899948120117 C184.53799438476562,43.46799850463867 187.61300659179688,45.9630012512207 187.61300659179688,45.9630012512207 C187.61300659179688,45.9630012512207 188.7899932861328,56.327999114990234 188.7899932861328,56.327999114990234 C188.7899932861328,56.327999114990234 174.97500610351562,57.268001556396484 174.97500610351562,57.268001556396484 C174.97500610351562,57.268001556396484 174.97500610351562,70.41100311279297 174.97500610351562,70.41100311279297 C167.68600463867188,76.04399871826172 160.39300537109375,81.677001953125 153.10400390625,87.30899810791016 C153.10400390625,87.30899810791016 153.10400390625,95.75900268554688 153.10400390625,95.75900268554688 C153.10400390625,95.75900268554688 146.19700622558594,95.75900268554688 146.19700622558594,95.75900268554688 C144.61000061035156,93.40399932861328 141.5919952392578,91.06500244140625 141.5919952392578,91.06500244140625 C141.5919952392578,91.06500244140625 131.8090057373047,90.927001953125 125.47599792480469,91.06500244140625 C124.33499908447266,92.62300109863281 120.09100341796875,95.1259994506836 119.72000122070312,95.75900268554688 C119.72000122070312,95.75900268554688 119.72000122070312,107.96399688720703 119.72000122070312,107.96399688720703 C120.75,108.44999694824219 123.1729965209961,110.77999877929688 123.1729965209961,110.77999877929688 C123.1729965209961,110.77999877929688 134.68499755859375,110.77999877929688 134.68499755859375,110.77999877929688 C139.67300415039062,115.16100311279297 144.66099548339844,119.54299926757812 149.64999389648438,123.92400360107422 C149.64999389648438,123.92400360107422 195.6959991455078,123.92400360107422 195.6959991455078,123.92400360107422 C206.45199584960938,133.24400329589844 223.9669952392578,146.57899475097656 221.02200317382812,144.57699584960938 C221.02200317382812,144.57699584960938 221.02200317382812,168.0469970703125 221.02200317382812,168.0469970703125 C215.26699829101562,172.42799377441406 209.50900268554688,176.80999755859375 203.75399780273438,181.1909942626953 C203.75399780273438,181.1909942626953 203.75399780273438,191.51800537109375 203.75399780273438,191.51800537109375 C194.16299438476562,199.0279998779297 184.56700134277344,206.53900146484375 174.97500610351562,214.0489959716797 C174.97500610351562,214.0489959716797 174.97500610351562,231.88699340820312 174.97500610351562,231.88699340820312 C174.97500610351562,231.88699340820312 166.91700744628906,231.88699340820312 166.91700744628906,231.88699340820312 C164.61500549316406,229.6959991455078 162.31300354003906,227.50599670410156 160.00999450683594,225.31500244140625 C160.00999450683594,225.31500244140625 157.70799255371094,224.3769989013672 157.70799255371094,224.3769989013672 C157.70799255371094,224.3769989013672 157.70799255371094,201.84500122070312 157.70799255371094,201.84500122070312 C159.62600708007812,200.593994140625 161.54600524902344,199.34100341796875 163.46400451660156,198.08999633789062 C163.46400451660156,198.08999633789062 163.46400451660156,160.53700256347656 163.46400451660156,160.53700256347656 C158.86000061035156,157.09500122070312 154.25399780273438,153.65199279785156 149.64999389648438,150.2100067138672 C149.64999389648438,150.2100067138672 149.64999389648438,131.4340057373047 149.64999389648438,131.4340057373047 C140.1580047607422,124.28800201416016 129.7030029296875,114.07499694824219 132.3820037841797,117.35199737548828 C132.3820037841797,117.35199737548828 116.26599884033203,117.35199737548828 116.26599884033203,117.35199737548828 C109.1240005493164,110.94499969482422 98.2760009765625,103.50199890136719 101.3010025024414,105.14700317382812 C101.3010025024414,105.14700317382812 101.3010025024414,98.57499694824219 101.3010025024414,98.57499694824219 C99.62100219726562,97.43299865722656 77.12699890136719,79.79900360107422 77.12699890136719,79.79900360107422 C77.12699890136719,79.79900360107422 75.97599792480469,45.167999267578125 75.97599792480469,54.45100021362305 C65.36599731445312,46.34000015258789 49.72600173950195,32.70399856567383 51.801998138427734,34.736000061035156 C51.801998138427734,34.736000061035156 31.079999923706055,34.736000061035156 31.079999923706055,34.736000061035156 C31.079999923706055,34.736000061035156 21.871000289916992,41.30799865722656 21.871000289916992,41.30799865722656 C21.871000289916992,41.30799865722656 21.871000289916992,42.24700164794922 21.871000289916992,42.24700164794922 C21.871000289916992,42.24700164794922 12.661999702453613,42.24700164794922 12.661999702453613,42.24700164794922 C12.661999702453613,42.24700164794922 0,31.920000076293945 0,31.920000076293945 C0,31.920000076293945 0,15.020999908447266 0,15.020999908447266 C0,15.020999908447266 11.51099967956543,5.631999969482422 11.51099967956543,5.631999969482422 C11.51099967956543,5.631999969482422 33.382999420166016,5.631999969482422 33.382999420166016,5.631999969482422 C34.1510009765625,6.571000099182129 34.917999267578125,7.510000228881836 35.68600082397461,8.449000358581543 C35.68600082397461,8.449000358581543 63.3129997253418,8.449000358581543 63.3129997253418,8.449000358581543 C63.3129997253418,8.449000358581543 81.73100280761719,8.449000358581543 81.73100280761719,8.449000358581543 C83.26599884033203,10.013999938964844 84.802001953125,11.57800006866455 86.33699798583984,13.142999649047852 C86.33699798583984,13.142999649047852 124.3239974975586,13.142999649047852 124.3239974975586,13.142999649047852 C124.3239974975586,13.142999649047852 124.3239974975586,0 124.3239974975586,0z"></path><path stroke-linecap="round" stroke-linejoin="miter" fill-opacity="0" stroke-miterlimit="4" stroke-dasharray=" 0 5" stroke-dashoffset="0" stroke="rgb(127,127,127)" stroke-opacity="1" stroke-width="2" d=" M136.98699951171875,0 C136.98699951171875,0 162.31300354003906,0 162.31300354003906,0 C164.3159942626953,2.874000072479248 174.9080047607422,11.48799991607666 178.4290008544922,13.142999649047852 C177.0330047607422,15.140999794006348 175.83599853515625,15.187000274658203 174.97500610351562,17.836999893188477 C177.46600341796875,18.892000198364258 179.22900390625,20.656999588012695 180.7310028076172,22.531999588012695 C180.7310028076172,22.531999588012695 179.5800018310547,22.531999588012695 179.5800018310547,22.531999588012695 C177.66200256347656,24.409000396728516 175.74200439453125,26.28700065612793 173.82400512695312,28.163999557495117 C173.82400512695312,28.163999557495117 171.52200317382812,28.163999557495117 171.52200317382812,28.163999557495117 C171.52200317382812,28.163999557495117 171.52200317382812,27.22599983215332 171.52200317382812,27.22599983215332 C168.06900024414062,24.722999572753906 164.61500549316406,22.218000411987305 161.16200256347656,19.71500015258789 C161.16200256347656,19.71500015258789 161.16200256347656,12.204000473022461 161.16200256347656,12.204000473022461 C158.85899353027344,10.638999938964844 156.5570068359375,9.076000213623047 154.2550048828125,7.511000156402588 C154.2550048828125,7.511000156402588 153.10400390625,5.631999969482422 153.10400390625,5.631999969482422 C153.10400390625,5.631999969482422 136.98699951171875,5.631999969482422 136.98699951171875,5.631999969482422 C136.98699951171875,5.631999969482422 136.98699951171875,0 136.98699951171875,0z M124.3239974975586,0 C124.3239974975586,0 131.2310028076172,0 131.2310028076172,0 C131.2310028076172,0 131.2310028076172,8.449000358581543 131.2310028076172,8.449000358581543 C135.02499389648438,10.307000160217285 136.98699951171875,13.142999649047852 136.98699951171875,13.142999649047852 C136.98699951171875,13.142999649047852 141.12100219726562,13.177000045776367 146.19700622558594,13.142999649047852 C146.19700622558594,13.142999649047852 146.19700622558594,17.836999893188477 146.19700622558594,17.836999893188477 C142.64700317382812,19.44300079345703 132.3820037841797,29.10300064086914 132.3820037841797,29.10300064086914 C132.3820037841797,29.10300064086914 132.3820037841797,38.49100112915039 132.3820037841797,38.49100112915039 C132.3820037841797,38.49100112915039 146.19700622558594,48.81800079345703 146.19700622558594,48.81800079345703 C146.19700622558594,48.81800079345703 155.406005859375,48.81800079345703 155.406005859375,48.81800079345703 C155.406005859375,48.81800079345703 155.406005859375,30.04199981689453 155.406005859375,30.04199981689453 C155.406005859375,30.04199981689453 166.91700744628906,30.04199981689453 166.91700744628906,30.04199981689453 C166.91700744628906,30.04199981689453 176.27699279785156,36.74300003051758 180.7310028076172,40.36899948120117 C184.53799438476562,43.46799850463867 187.61300659179688,45.9630012512207 187.61300659179688,45.9630012512207 C187.61300659179688,45.9630012512207 188.7899932861328,56.327999114990234 188.7899932861328,56.327999114990234 C188.7899932861328,56.327999114990234 174.97500610351562,57.268001556396484 174.97500610351562,57.268001556396484 C174.97500610351562,57.268001556396484 174.97500610351562,70.41100311279297 174.97500610351562,70.41100311279297 C167.68600463867188,76.04399871826172 160.39300537109375,81.677001953125 153.10400390625,87.30899810791016 C153.10400390625,87.30899810791016 153.10400390625,95.75900268554688 153.10400390625,95.75900268554688 C153.10400390625,95.75900268554688 146.19700622558594,95.75900268554688 146.19700622558594,95.75900268554688 C144.61000061035156,93.40399932861328 141.5919952392578,91.06500244140625 141.5919952392578,91.06500244140625 C141.5919952392578,91.06500244140625 131.8090057373047,90.927001953125 125.47599792480469,91.06500244140625 C124.33499908447266,92.62300109863281 120.09100341796875,95.1259994506836 119.72000122070312,95.75900268554688 C119.72000122070312,95.75900268554688 119.72000122070312,107.96399688720703 119.72000122070312,107.96399688720703 C120.75,108.44999694824219 123.1729965209961,110.77999877929688 123.1729965209961,110.77999877929688 C123.1729965209961,110.77999877929688 134.68499755859375,110.77999877929688 134.68499755859375,110.77999877929688 C139.67300415039062,115.16100311279297 144.66099548339844,119.54299926757812 149.64999389648438,123.92400360107422 C149.64999389648438,123.92400360107422 195.6959991455078,123.92400360107422 195.6959991455078,123.92400360107422 C206.45199584960938,133.24400329589844 223.9669952392578,146.57899475097656 221.02200317382812,144.57699584960938 C221.02200317382812,144.57699584960938 221.02200317382812,168.0469970703125 221.02200317382812,168.0469970703125 C215.26699829101562,172.42799377441406 209.50900268554688,176.80999755859375 203.75399780273438,181.1909942626953 C203.75399780273438,181.1909942626953 203.75399780273438,191.51800537109375 203.75399780273438,191.51800537109375 C194.16299438476562,199.0279998779297 184.56700134277344,206.53900146484375 174.97500610351562,214.0489959716797 C174.97500610351562,214.0489959716797 174.97500610351562,231.88699340820312 174.97500610351562,231.88699340820312 C174.97500610351562,231.88699340820312 166.91700744628906,231.88699340820312 166.91700744628906,231.88699340820312 C164.61500549316406,229.6959991455078 162.31300354003906,227.50599670410156 160.00999450683594,225.31500244140625 C160.00999450683594,225.31500244140625 157.70799255371094,224.3769989013672 157.70799255371094,224.3769989013672 C157.70799255371094,224.3769989013672 157.70799255371094,201.84500122070312 157.70799255371094,201.84500122070312 C159.62600708007812,200.593994140625 161.54600524902344,199.34100341796875 163.46400451660156,198.08999633789062 C163.46400451660156,198.08999633789062 163.46400451660156,160.53700256347656 163.46400451660156,160.53700256347656 C158.86000061035156,157.09500122070312 154.25399780273438,153.65199279785156 149.64999389648438,150.2100067138672 C149.64999389648438,150.2100067138672 149.64999389648438,131.4340057373047 149.64999389648438,131.4340057373047 C140.1580047607422,124.28800201416016 129.7030029296875,114.07499694824219 132.3820037841797,117.35199737548828 C132.3820037841797,117.35199737548828 116.26599884033203,117.35199737548828 116.26599884033203,117.35199737548828 C109.1240005493164,110.94499969482422 98.2760009765625,103.50199890136719 101.3010025024414,105.14700317382812 C101.3010025024414,105.14700317382812 101.3010025024414,98.57499694824219 101.3010025024414,98.57499694824219 C99.62100219726562,97.43299865722656 77.12699890136719,79.79900360107422 77.12699890136719,79.79900360107422 C77.12699890136719,79.79900360107422 75.97599792480469,45.167999267578125 75.97599792480469,54.45100021362305 C65.36599731445312,46.34000015258789 49.72600173950195,32.70399856567383 51.801998138427734,34.736000061035156 C51.801998138427734,34.736000061035156 31.079999923706055,34.736000061035156 31.079999923706055,34.736000061035156 C31.079999923706055,34.736000061035156 21.871000289916992,41.30799865722656 21.871000289916992,41.30799865722656 C21.871000289916992,41.30799865722656 21.871000289916992,42.24700164794922 21.871000289916992,42.24700164794922 C21.871000289916992,42.24700164794922 12.661999702453613,42.24700164794922 12.661999702453613,42.24700164794922 C12.661999702453613,42.24700164794922 0,31.920000076293945 0,31.920000076293945 C0,31.920000076293945 0,15.020999908447266 0,15.020999908447266 C0,15.020999908447266 11.51099967956543,5.631999969482422 11.51099967956543,5.631999969482422 C11.51099967956543,5.631999969482422 33.382999420166016,5.631999969482422 33.382999420166016,5.631999969482422 C34.1510009765625,6.571000099182129 34.917999267578125,7.510000228881836 35.68600082397461,8.449000358581543 C35.68600082397461,8.449000358581543 63.3129997253418,8.449000358581543 63.3129997253418,8.449000358581543 C63.3129997253418,8.449000358581543 81.73100280761719,8.449000358581543 81.73100280761719,8.449000358581543 C83.26599884033203,10.013999938964844 84.802001953125,11.57800006866455 86.33699798583984,13.142999649047852 C86.33699798583984,13.142999649047852 124.3239974975586,13.142999649047852 124.3239974975586,13.142999649047852 C124.3239974975586,13.142999649047852 124.3239974975586,0 124.3239974975586,0z"></path></g></g><g transform="matrix(1,0,0,1,345.6130065917969,243.68600463867188)" opacity="1" style="display: block;"></g><g transform="matrix(1,0,0,1,345.6130065917969,243.68600463867188)" opacity="1" style="display: block;"></g><g transform="matrix(1,0,0,1,118.25599670410156,77.29999542236328)" opacity="1" style="display: block;"><g opacity="1" transform="matrix(1,0,0,1,0,0)"><path stroke-linecap="round" stroke-linejoin="round" fill-opacity="0" stroke-dasharray=" 0 8" stroke-dashoffset="5.536492824554443" stroke="rgb(0,0,0)" stroke-opacity="1" stroke-width="1.5" d=" M200.47900390625,0 C12.475000381469727,21.990999221801758 0,128.69200134277344 0,128.69200134277344"></path></g></g><g transform="matrix(1,0,0,1,369.46502685546875,76.31400299072266)" opacity="1" style="display: block;"><g opacity="1" transform="matrix(1,0,0,1,0,0)"><path stroke-linecap="round" stroke-linejoin="round" fill-opacity="0" stroke-dasharray=" 0 8" stroke-dashoffset="5.536492824554443" stroke="rgb(0,0,0)" stroke-opacity="1" stroke-width="1.5" d=" M0,0 C207.01600646972656,36.6349983215332 241.4429931640625,223.53500366210938 241.4429931640625,223.53500366210938"></path></g></g><g transform="matrix(1,0,0,1,361.9049987792969,83.29299926757812)" opacity="1" style="display: block;"><g opacity="1" transform="matrix(1,0,0,1,0,0)"><path stroke-linecap="round" stroke-linejoin="round" fill-opacity="0" stroke-dasharray=" 0 8" stroke-dashoffset="5.536492824554443" stroke="rgb(0,0,0)" stroke-opacity="1" stroke-width="1.5" d=" M0,0 C98.8550033569336,22.679000854492188 145.77000427246094,133.32400512695312 145.77000427246094,133.32400512695312"></path></g></g><g transform="matrix(1,0,0,1,228.16099548339844,79.21700286865234)" opacity="1" style="display: block;"><g opacity="1" transform="matrix(1,0,0,1,0,0)"><path stroke-linecap="round" stroke-linejoin="round" fill-opacity="0" stroke-dasharray=" 0 8" stroke-dashoffset="5.536492824554443" stroke="rgb(0,0,0)" stroke-opacity="1" stroke-width="1.5" d=" M102.84100341796875,0 C3.630000114440918,25.63800048828125 0,62.22700119018555 0,62.22700119018555"></path></g></g><g transform="matrix(1,0,0,1,347.9499816894531,89.10800170898438)" opacity="1" style="display: block;"><g opacity="1" transform="matrix(1,0,0,1,0,0)"><path stroke-linecap="round" stroke-linejoin="round" fill-opacity="0" stroke-dasharray=" 0 8" stroke-dashoffset="5.536492824554443" stroke="rgb(0,0,0)" stroke-opacity="1" stroke-width="1.5" d=" M0,0 C0,0 44.194000244140625,61.638999938964844 30.96299934387207,170.29299926757812"></path></g></g><g transform="matrix(1.0370075702667236,0,0,1.0370075702667236,115,217.13400268554688)" opacity="1" style="display: block;"><g opacity="1" transform="matrix(1,0,0,1,0,0)"><path fill="rgb(156,52,240)" fill-opacity="1" d=" M0,-10 C5.519000053405762,-10 10,-5.519000053405762 10,0 C10,5.519000053405762 5.519000053405762,10 0,10 C-5.519000053405762,10 -10,5.519000053405762 -10,0 C-10,-5.519000053405762 -5.519000053405762,-10 0,-10z"></path></g></g><g transform="matrix(1.2282425165176392,0,0,1.2282425165176392,115,217.13400268554688)" opacity="0.4471522424283422" style="display: block;"><g opacity="1" transform="matrix(1,0,0,1,0,0)"><path stroke-linecap="butt" stroke-linejoin="miter" fill-opacity="0" stroke-miterlimit="4" stroke="rgb(156,52,240)" stroke-opacity="1" stroke-width="1" d=" M0,-10 C5.519000053405762,-10 10,-5.519000053405762 10,0 C10,5.519000053405762 5.519000053405762,10 0,10 C-5.519000053405762,10 -10,5.519000053405762 -10,0 C-10,-5.519000053405762 -5.519000053405762,-10 0,-10z"></path></g></g><g transform="matrix(0.9999969601631165,0,0,0.9999969601631165,341.5,68.88400268554688)" opacity="1" style="display: none;"><g opacity="1" transform="matrix(1,0,0,1,0,0)"><path fill="rgb(251,84,87)" fill-opacity="1" d=" M0,-10 C5.519000053405762,-10 10,-5.519000053405762 10,0 C10,5.519000053405762 5.519000053405762,10 0,10 C-5.519000053405762,10 -10,5.519000053405762 -10,0 C-10,-5.519000053405762 -5.519000053405762,-10 0,-10z"></path></g></g><g transform="matrix(1.835442304611206,0,0,1.835442304611206,226,140.38400268554688)" opacity="0.006671566277235854" style="display: none;"><g opacity="1" transform="matrix(1,0,0,1,0,0)"><path stroke-linecap="butt" stroke-linejoin="miter" fill-opacity="0" stroke-miterlimit="4" stroke="rgb(251,84,87)" stroke-opacity="1" stroke-width="1" d=" M0,-10 C5.519000053405762,-10 10,-5.519000053405762 10,0 C10,5.519000053405762 5.519000053405762,10 0,10 C-5.519000053405762,10 -10,5.519000053405762 -10,0 C-10,-5.519000053405762 -5.519000053405762,-10 0,-10z"></path></g></g><g style="display: none;" transform="matrix(0.9999794960021973,0,0,0.9999794960021973,341.5,68.88400268554688)" opacity="1"><g opacity="1" transform="matrix(1,0,0,1,0,0)"><path fill="rgb(251,84,87)" fill-opacity="1" d=" M0,-10 C5.519000053405762,-10 10,-5.519000053405762 10,0 C10,5.519000053405762 5.519000053405762,10 0,10 C-5.519000053405762,10 -10,5.519000053405762 -10,0 C-10,-5.519000053405762 -5.519000053405762,-10 0,-10z"></path></g></g><g style="display: none;" transform="matrix(1.849311113357544,0,0,1.849311113357544,378.75,256.6340026855469)" opacity="0.00779777508938551"><g opacity="1" transform="matrix(1,0,0,1,0,0)"><path stroke-linecap="butt" stroke-linejoin="miter" fill-opacity="0" stroke-miterlimit="4" stroke="rgb(251,84,87)" stroke-opacity="1" stroke-width="1" d=" M0,-10 C5.519000053405762,-10 10,-5.519000053405762 10,0 C10,5.519000053405762 5.519000053405762,10 0,10 C-5.519000053405762,10 -10,5.519000053405762 -10,0 C-10,-5.519000053405762 -5.519000053405762,-10 0,-10z"></path></g></g><g style="display: none;" transform="matrix(1.0000039339065552,0,0,1.0000039339065552,341.5,68.88400268554688)" opacity="1"><g opacity="1" transform="matrix(1,0,0,1,0,0)"><path fill="rgb(88,87,249)" fill-opacity="1" d=" M0,-10 C5.519000053405762,-10 10,-5.519000053405762 10,0 C10,5.519000053405762 5.519000053405762,10 0,10 C-5.519000053405762,10 -10,5.519000053405762 -10,0 C-10,-5.519000053405762 -5.519000053405762,-10 0,-10z"></path></g></g><g style="display: none;" transform="matrix(1.8503776788711548,0,0,1.8503776788711548,507,223.38400268554688)" opacity="0.007023285600258618"><g opacity="1" transform="matrix(1,0,0,1,0,0)"><path stroke-linecap="butt" stroke-linejoin="miter" fill-opacity="0" stroke-miterlimit="4" stroke="rgb(88,87,249)" stroke-opacity="1" stroke-width="1" d=" M0,-10 C5.519000053405762,-10 10,-5.519000053405762 10,0 C10,5.519000053405762 5.519000053405762,10 0,10 C-5.519000053405762,10 -10,5.519000053405762 -10,0 C-10,-5.519000053405762 -5.519000053405762,-10 0,-10z"></path></g></g><g style="display: none;" transform="matrix(1.000010371208191,0,0,1.000010371208191,341.5,68.88400268554688)" opacity="1"><g opacity="1" transform="matrix(1,0,0,1,0,0)"><path fill="rgb(156,52,240)" fill-opacity="1" d=" M0,-10 C5.519000053405762,-10 10,-5.519000053405762 10,0 C10,5.519000053405762 5.519000053405762,10 0,10 C-5.519000053405762,10 -10,5.519000053405762 -10,0 C-10,-5.519000053405762 -5.519000053405762,-10 0,-10z"></path></g></g><g style="display: none;" transform="matrix(1.8479809761047363,0,0,1.8479809761047363,613.5,308.8840026855469)" opacity="0.00876302913308649"><g opacity="1" transform="matrix(1,0,0,1,0,0)"><path stroke-linecap="butt" stroke-linejoin="miter" fill-opacity="0" stroke-miterlimit="4" stroke="rgb(156,52,240)" stroke-opacity="1" stroke-width="1" d=" M0,-10 C5.519000053405762,-10 10,-5.519000053405762 10,0 C10,5.519000053405762 5.519000053405762,10 0,10 C-5.519000053405762,10 -10,5.519000053405762 -10,0 C-10,-5.519000053405762 -5.519000053405762,-10 0,-10z"></path></g></g><g transform="matrix(-1,0,0,-1,376,80.23999786376953)" opacity="1" style="display: block;"><g opacity="1" transform="matrix(1,0,0,1,0,0)"><path fill="rgb(255,255,255)" fill-opacity="1" d=" M19.739999771118164,1.8170000314712524 C26.365999221801758,-0.6060000061988831 33.63399887084961,-0.6060000061988831 40.2599983215332,1.8170000314712524 C40.2599983215332,1.8170000314712524 40.28799819946289,1.8270000219345093 40.28799819946289,1.8270000219345093 C46.88999938964844,4.241000175476074 52.42900085449219,8.904999732971191 55.93199920654297,15 C55.93199920654297,15 56.027000427246094,15.166000366210938 56.027000427246094,15.166000366210938 C59.51300048828125,21.231000900268555 60.75899887084961,28.32699966430664 59.54999923706055,35.21699905395508 C59.54999923706055,35.21699905395508 59.50699996948242,35.46099853515625 59.50699996948242,35.46099853515625 C58.29499816894531,42.36399841308594 54.69599914550781,48.62200164794922 49.33700180053711,53.138999938964844 C49.33700180053711,53.138999938964844 49.25600051879883,53.207000732421875 49.25600051879883,53.207000732421875 C43.86800003051758,57.749000549316406 37.047000885009766,60.2400016784668 30,60.2400016784668 C30,60.2400016784668 30,60.2400016784668 30,60.2400016784668 C22.952999114990234,60.2400016784668 16.131999969482422,57.749000549316406 10.744000434875488,53.207000732421875 C10.744000434875488,53.207000732421875 10.663000106811523,53.138999938964844 10.663000106811523,53.138999938964844 C5.303999900817871,48.62200164794922 1.7050000429153442,42.36399841308594 0.49300000071525574,35.46099853515625 C0.49300000071525574,35.46099853515625 0.44999998807907104,35.21699905395508 0.44999998807907104,35.21699905395508 C-0.7590000033378601,28.32699966430664 0.4869999885559082,21.231000900268555 3.9730000495910645,15.166000366210938 C3.9730000495910645,15.166000366210938 4.067999839782715,15 4.067999839782715,15 C7.571000099182129,8.904999732971191 13.109999656677246,4.241000175476074 19.711999893188477,1.8270000219345093 C19.711999893188477,1.8270000219345093 13.137999534606934,4.230999946594238 19.739999771118164,1.8170000314712524z"></path><path stroke-linecap="round" stroke-linejoin="round" fill-opacity="0" stroke-dasharray=" 0 9" stroke-dashoffset="0" stroke="rgb(0,0,0)" stroke-opacity="1" stroke-width="1.5" d=" M19.739999771118164,1.8170000314712524 C26.365999221801758,-0.6060000061988831 33.63399887084961,-0.6060000061988831 40.2599983215332,1.8170000314712524 C40.2599983215332,1.8170000314712524 40.28799819946289,1.8270000219345093 40.28799819946289,1.8270000219345093 C46.88999938964844,4.241000175476074 52.42900085449219,8.904999732971191 55.93199920654297,15 C55.93199920654297,15 56.027000427246094,15.166000366210938 56.027000427246094,15.166000366210938 C59.51300048828125,21.231000900268555 60.75899887084961,28.32699966430664 59.54999923706055,35.21699905395508 C59.54999923706055,35.21699905395508 59.50699996948242,35.46099853515625 59.50699996948242,35.46099853515625 C58.29499816894531,42.36399841308594 54.69599914550781,48.62200164794922 49.33700180053711,53.138999938964844 C49.33700180053711,53.138999938964844 49.25600051879883,53.207000732421875 49.25600051879883,53.207000732421875 C43.86800003051758,57.749000549316406 37.047000885009766,60.2400016784668 30,60.2400016784668 C30,60.2400016784668 30,60.2400016784668 30,60.2400016784668 C22.952999114990234,60.2400016784668 16.131999969482422,57.749000549316406 10.744000434875488,53.207000732421875 C10.744000434875488,53.207000732421875 10.663000106811523,53.138999938964844 10.663000106811523,53.138999938964844 C5.303999900817871,48.62200164794922 1.7050000429153442,42.36399841308594 0.49300000071525574,35.46099853515625 C0.49300000071525574,35.46099853515625 0.44999998807907104,35.21699905395508 0.44999998807907104,35.21699905395508 C-0.7590000033378601,28.32699966430664 0.4869999885559082,21.231000900268555 3.9730000495910645,15.166000366210938 C3.9730000495910645,15.166000366210938 4.067999839782715,15 4.067999839782715,15 C7.571000099182129,8.904999732971191 13.109999656677246,4.241000175476074 19.711999893188477,1.8270000219345093 C19.711999893188477,1.8270000219345093 13.137999534606934,4.230999946594238 19.739999771118164,1.8170000314712524z"></path></g></g><g transform="matrix(-1.548805832862854,0,0,-1.548805832862854,392.46417236328125,96.77003479003906)" opacity="0.04254850489774157" style="display: none;"><g opacity="1" transform="matrix(1,0,0,1,0,0)"><path stroke-linecap="round" stroke-linejoin="round" fill-opacity="0" stroke-dasharray=" 0" stroke-dashoffset="0" stroke="rgb(89,37,125)" stroke-opacity="1" stroke-width="1" d=" M19.739999771118164,1.8170000314712524 C26.365999221801758,-0.6060000061988831 33.63399887084961,-0.6060000061988831 40.2599983215332,1.8170000314712524 C40.2599983215332,1.8170000314712524 40.28799819946289,1.8270000219345093 40.28799819946289,1.8270000219345093 C46.88999938964844,4.241000175476074 52.42900085449219,8.904999732971191 55.93199920654297,15 C55.93199920654297,15 56.027000427246094,15.166000366210938 56.027000427246094,15.166000366210938 C59.51300048828125,21.231000900268555 60.75899887084961,28.32699966430664 59.54999923706055,35.21699905395508 C59.54999923706055,35.21699905395508 59.50699996948242,35.46099853515625 59.50699996948242,35.46099853515625 C58.29499816894531,42.36399841308594 54.69599914550781,48.62200164794922 49.33700180053711,53.138999938964844 C49.33700180053711,53.138999938964844 49.25600051879883,53.207000732421875 49.25600051879883,53.207000732421875 C43.86800003051758,57.749000549316406 37.047000885009766,60.2400016784668 30,60.2400016784668 C30,60.2400016784668 30,60.2400016784668 30,60.2400016784668 C22.952999114990234,60.2400016784668 16.131999969482422,57.749000549316406 10.744000434875488,53.207000732421875 C10.744000434875488,53.207000732421875 10.663000106811523,53.138999938964844 10.663000106811523,53.138999938964844 C5.303999900817871,48.62200164794922 1.7050000429153442,42.36399841308594 0.49300000071525574,35.46099853515625 C0.49300000071525574,35.46099853515625 0.44999998807907104,35.21699905395508 0.44999998807907104,35.21699905395508 C-0.7590000033378601,28.32699966430664 0.4869999885559082,21.231000900268555 3.9730000495910645,15.166000366210938 C3.9730000495910645,15.166000366210938 4.067999839782715,15 4.067999839782715,15 C7.571000099182129,8.904999732971191 13.109999656677246,4.241000175476074 19.711999893188477,1.8270000219345093 C19.711999893188477,1.8270000219345093 13.137999534606934,4.230999946594238 19.739999771118164,1.8170000314712524z"></path></g></g><g transform="matrix(-1,0,0,-1,235.5,80.23999786376953)" opacity="1" style="display: block;"><g opacity="1" transform="matrix(1,0,0,1,0,0)"><path fill="rgb(255,255,255)" fill-opacity="1" d=" M19.739999771118164,1.8170000314712524 C26.365999221801758,-0.6060000061988831 33.63399887084961,-0.6060000061988831 40.2599983215332,1.8170000314712524 C40.2599983215332,1.8170000314712524 40.28799819946289,1.8270000219345093 40.28799819946289,1.8270000219345093 C46.88999938964844,4.241000175476074 52.42900085449219,8.904999732971191 55.93199920654297,15 C55.93199920654297,15 56.027000427246094,15.166000366210938 56.027000427246094,15.166000366210938 C59.51300048828125,21.231000900268555 60.75899887084961,28.32699966430664 59.54999923706055,35.21699905395508 C59.54999923706055,35.21699905395508 59.50699996948242,35.46099853515625 59.50699996948242,35.46099853515625 C58.29499816894531,42.36399841308594 54.69599914550781,48.62200164794922 49.33700180053711,53.138999938964844 C49.33700180053711,53.138999938964844 49.25600051879883,53.207000732421875 49.25600051879883,53.207000732421875 C43.86800003051758,57.749000549316406 37.047000885009766,60.2400016784668 30,60.2400016784668 C30,60.2400016784668 30,60.2400016784668 30,60.2400016784668 C22.952999114990234,60.2400016784668 16.131999969482422,57.749000549316406 10.744000434875488,53.207000732421875 C10.744000434875488,53.207000732421875 10.663000106811523,53.138999938964844 10.663000106811523,53.138999938964844 C5.303999900817871,48.62200164794922 1.7050000429153442,42.36399841308594 0.49300000071525574,35.46099853515625 C0.49300000071525574,35.46099853515625 0.44999998807907104,35.21699905395508 0.44999998807907104,35.21699905395508 C-0.7590000033378601,28.32699966430664 0.4869999885559082,21.231000900268555 3.9730000495910645,15.166000366210938 C3.9730000495910645,15.166000366210938 4.067999839782715,15 4.067999839782715,15 C7.571000099182129,8.904999732971191 13.109999656677246,4.241000175476074 19.711999893188477,1.8270000219345093 C19.711999893188477,1.8270000219345093 13.137999534606934,4.230999946594238 19.739999771118164,1.8170000314712524z"></path><path stroke-linecap="round" stroke-linejoin="round" fill-opacity="0" stroke-dasharray=" 0 9" stroke-dashoffset="0" stroke="rgb(0,0,0)" stroke-opacity="1" stroke-width="1.5" d=" M19.739999771118164,1.8170000314712524 C26.365999221801758,-0.6060000061988831 33.63399887084961,-0.6060000061988831 40.2599983215332,1.8170000314712524 C40.2599983215332,1.8170000314712524 40.28799819946289,1.8270000219345093 40.28799819946289,1.8270000219345093 C46.88999938964844,4.241000175476074 52.42900085449219,8.904999732971191 55.93199920654297,15 C55.93199920654297,15 56.027000427246094,15.166000366210938 56.027000427246094,15.166000366210938 C59.51300048828125,21.231000900268555 60.75899887084961,28.32699966430664 59.54999923706055,35.21699905395508 C59.54999923706055,35.21699905395508 59.50699996948242,35.46099853515625 59.50699996948242,35.46099853515625 C58.29499816894531,42.36399841308594 54.69599914550781,48.62200164794922 49.33700180053711,53.138999938964844 C49.33700180053711,53.138999938964844 49.25600051879883,53.207000732421875 49.25600051879883,53.207000732421875 C43.86800003051758,57.749000549316406 37.047000885009766,60.2400016784668 30,60.2400016784668 C30,60.2400016784668 30,60.2400016784668 30,60.2400016784668 C22.952999114990234,60.2400016784668 16.131999969482422,57.749000549316406 10.744000434875488,53.207000732421875 C10.744000434875488,53.207000732421875 10.663000106811523,53.138999938964844 10.663000106811523,53.138999938964844 C5.303999900817871,48.62200164794922 1.7050000429153442,42.36399841308594 0.49300000071525574,35.46099853515625 C0.49300000071525574,35.46099853515625 0.44999998807907104,35.21699905395508 0.44999998807907104,35.21699905395508 C-0.7590000033378601,28.32699966430664 0.4869999885559082,21.231000900268555 3.9730000495910645,15.166000366210938 C3.9730000495910645,15.166000366210938 4.067999839782715,15 4.067999839782715,15 C7.571000099182129,8.904999732971191 13.109999656677246,4.241000175476074 19.711999893188477,1.8270000219345093 C19.711999893188477,1.8270000219345093 13.137999534606934,4.230999946594238 19.739999771118164,1.8170000314712524z"></path></g></g><g transform="matrix(-1.5668662786483765,0,0,-1.5668662786483765,253.05801391601562,97.31401824951172)" opacity="0.04351031812349078" style="display: none;"><g opacity="1" transform="matrix(1,0,0,1,0,0)"><path stroke-linecap="round" stroke-linejoin="round" fill-opacity="0" stroke-dasharray=" 0" stroke-dashoffset="0" stroke="rgb(89,37,125)" stroke-opacity="1" stroke-width="1" d=" M19.739999771118164,1.8170000314712524 C26.365999221801758,-0.6060000061988831 33.63399887084961,-0.6060000061988831 40.2599983215332,1.8170000314712524 C40.2599983215332,1.8170000314712524 40.28799819946289,1.8270000219345093 40.28799819946289,1.8270000219345093 C46.88999938964844,4.241000175476074 52.42900085449219,8.904999732971191 55.93199920654297,15 C55.93199920654297,15 56.027000427246094,15.166000366210938 56.027000427246094,15.166000366210938 C59.51300048828125,21.231000900268555 60.75899887084961,28.32699966430664 59.54999923706055,35.21699905395508 C59.54999923706055,35.21699905395508 59.50699996948242,35.46099853515625 59.50699996948242,35.46099853515625 C58.29499816894531,42.36399841308594 54.69599914550781,48.62200164794922 49.33700180053711,53.138999938964844 C49.33700180053711,53.138999938964844 49.25600051879883,53.207000732421875 49.25600051879883,53.207000732421875 C43.86800003051758,57.749000549316406 37.047000885009766,60.2400016784668 30,60.2400016784668 C30,60.2400016784668 30,60.2400016784668 30,60.2400016784668 C22.952999114990234,60.2400016784668 16.131999969482422,57.749000549316406 10.744000434875488,53.207000732421875 C10.744000434875488,53.207000732421875 10.663000106811523,53.138999938964844 10.663000106811523,53.138999938964844 C5.303999900817871,48.62200164794922 1.7050000429153442,42.36399841308594 0.49300000071525574,35.46099853515625 C0.49300000071525574,35.46099853515625 0.44999998807907104,35.21699905395508 0.44999998807907104,35.21699905395508 C-0.7590000033378601,28.32699966430664 0.4869999885559082,21.231000900268555 3.9730000495910645,15.166000366210938 C3.9730000495910645,15.166000366210938 4.067999839782715,15 4.067999839782715,15 C7.571000099182129,8.904999732971191 13.109999656677246,4.241000175476074 19.711999893188477,1.8270000219345093 C19.711999893188477,1.8270000219345093 13.137999534606934,4.230999946594238 19.739999771118164,1.8170000314712524z"></path></g></g><g transform="matrix(-1,0,0,-1,510.5,80.23999786376953)" opacity="1" style="display: block;"><g opacity="1" transform="matrix(1,0,0,1,0,0)"><path fill="rgb(255,255,255)" fill-opacity="1" d=" M19.739999771118164,1.8170000314712524 C26.365999221801758,-0.6060000061988831 33.63399887084961,-0.6060000061988831 40.2599983215332,1.8170000314712524 C40.2599983215332,1.8170000314712524 40.28799819946289,1.8270000219345093 40.28799819946289,1.8270000219345093 C46.88999938964844,4.241000175476074 52.42900085449219,8.904999732971191 55.93199920654297,15 C55.93199920654297,15 56.027000427246094,15.166000366210938 56.027000427246094,15.166000366210938 C59.51300048828125,21.231000900268555 60.75899887084961,28.32699966430664 59.54999923706055,35.21699905395508 C59.54999923706055,35.21699905395508 59.50699996948242,35.46099853515625 59.50699996948242,35.46099853515625 C58.29499816894531,42.36399841308594 54.69599914550781,48.62200164794922 49.33700180053711,53.138999938964844 C49.33700180053711,53.138999938964844 49.25600051879883,53.207000732421875 49.25600051879883,53.207000732421875 C43.86800003051758,57.749000549316406 37.047000885009766,60.2400016784668 30,60.2400016784668 C30,60.2400016784668 30,60.2400016784668 30,60.2400016784668 C22.952999114990234,60.2400016784668 16.131999969482422,57.749000549316406 10.744000434875488,53.207000732421875 C10.744000434875488,53.207000732421875 10.663000106811523,53.138999938964844 10.663000106811523,53.138999938964844 C5.303999900817871,48.62200164794922 1.7050000429153442,42.36399841308594 0.49300000071525574,35.46099853515625 C0.49300000071525574,35.46099853515625 0.44999998807907104,35.21699905395508 0.44999998807907104,35.21699905395508 C-0.7590000033378601,28.32699966430664 0.4869999885559082,21.231000900268555 3.9730000495910645,15.166000366210938 C3.9730000495910645,15.166000366210938 4.067999839782715,15 4.067999839782715,15 C7.571000099182129,8.904999732971191 13.109999656677246,4.241000175476074 19.711999893188477,1.8270000219345093 C19.711999893188477,1.8270000219345093 13.137999534606934,4.230999946594238 19.739999771118164,1.8170000314712524z"></path><path stroke-linecap="round" stroke-linejoin="round" fill-opacity="0" stroke-dasharray=" 0 9" stroke-dashoffset="0" stroke="rgb(0,0,0)" stroke-opacity="1" stroke-width="1.5" d=" M19.739999771118164,1.8170000314712524 C26.365999221801758,-0.6060000061988831 33.63399887084961,-0.6060000061988831 40.2599983215332,1.8170000314712524 C40.2599983215332,1.8170000314712524 40.28799819946289,1.8270000219345093 40.28799819946289,1.8270000219345093 C46.88999938964844,4.241000175476074 52.42900085449219,8.904999732971191 55.93199920654297,15 C55.93199920654297,15 56.027000427246094,15.166000366210938 56.027000427246094,15.166000366210938 C59.51300048828125,21.231000900268555 60.75899887084961,28.32699966430664 59.54999923706055,35.21699905395508 C59.54999923706055,35.21699905395508 59.50699996948242,35.46099853515625 59.50699996948242,35.46099853515625 C58.29499816894531,42.36399841308594 54.69599914550781,48.62200164794922 49.33700180053711,53.138999938964844 C49.33700180053711,53.138999938964844 49.25600051879883,53.207000732421875 49.25600051879883,53.207000732421875 C43.86800003051758,57.749000549316406 37.047000885009766,60.2400016784668 30,60.2400016784668 C30,60.2400016784668 30,60.2400016784668 30,60.2400016784668 C22.952999114990234,60.2400016784668 16.131999969482422,57.749000549316406 10.744000434875488,53.207000732421875 C10.744000434875488,53.207000732421875 10.663000106811523,53.138999938964844 10.663000106811523,53.138999938964844 C5.303999900817871,48.62200164794922 1.7050000429153442,42.36399841308594 0.49300000071525574,35.46099853515625 C0.49300000071525574,35.46099853515625 0.44999998807907104,35.21699905395508 0.44999998807907104,35.21699905395508 C-0.7590000033378601,28.32699966430664 0.4869999885559082,21.231000900268555 3.9730000495910645,15.166000366210938 C3.9730000495910645,15.166000366210938 4.067999839782715,15 4.067999839782715,15 C7.571000099182129,8.904999732971191 13.109999656677246,4.241000175476074 19.711999893188477,1.8270000219345093 C19.711999893188477,1.8270000219345093 13.137999534606934,4.230999946594238 19.739999771118164,1.8170000314712524z"></path></g></g><g style="display: none;" transform="matrix(-1.4174903631210327,0,0,-1.4174903631210327,523.5244140625,92.81481170654297)" opacity="0.043751463767045355"><g opacity="1" transform="matrix(1,0,0,1,0,0)"><path stroke-linecap="round" stroke-linejoin="round" fill-opacity="0" stroke-dasharray=" 0" stroke-dashoffset="0" stroke="rgb(89,37,125)" stroke-opacity="1" stroke-width="1" d=" M19.739999771118164,1.8170000314712524 C26.365999221801758,-0.6060000061988831 33.63399887084961,-0.6060000061988831 40.2599983215332,1.8170000314712524 C40.2599983215332,1.8170000314712524 40.28799819946289,1.8270000219345093 40.28799819946289,1.8270000219345093 C46.88999938964844,4.241000175476074 52.42900085449219,8.904999732971191 55.93199920654297,15 C55.93199920654297,15 56.027000427246094,15.166000366210938 56.027000427246094,15.166000366210938 C59.51300048828125,21.231000900268555 60.75899887084961,28.32699966430664 59.54999923706055,35.21699905395508 C59.54999923706055,35.21699905395508 59.50699996948242,35.46099853515625 59.50699996948242,35.46099853515625 C58.29499816894531,42.36399841308594 54.69599914550781,48.62200164794922 49.33700180053711,53.138999938964844 C49.33700180053711,53.138999938964844 49.25600051879883,53.207000732421875 49.25600051879883,53.207000732421875 C43.86800003051758,57.749000549316406 37.047000885009766,60.2400016784668 30,60.2400016784668 C30,60.2400016784668 30,60.2400016784668 30,60.2400016784668 C22.952999114990234,60.2400016784668 16.131999969482422,57.749000549316406 10.744000434875488,53.207000732421875 C10.744000434875488,53.207000732421875 10.663000106811523,53.138999938964844 10.663000106811523,53.138999938964844 C5.303999900817871,48.62200164794922 1.7050000429153442,42.36399841308594 0.49300000071525574,35.46099853515625 C0.49300000071525574,35.46099853515625 0.44999998807907104,35.21699905395508 0.44999998807907104,35.21699905395508 C-0.7590000033378601,28.32699966430664 0.4869999885559082,21.231000900268555 3.9730000495910645,15.166000366210938 C3.9730000495910645,15.166000366210938 4.067999839782715,15 4.067999839782715,15 C7.571000099182129,8.904999732971191 13.109999656677246,4.241000175476074 19.711999893188477,1.8270000219345093 C19.711999893188477,1.8270000219345093 13.137999534606934,4.230999946594238 19.739999771118164,1.8170000314712524z"></path></g></g><g transform="matrix(1,0,0,1,412.47900390625,48.93299865722656)" opacity="1" style="display: block;"><g opacity="1" transform="matrix(1,0,0,1,0,0)"><path stroke-linecap="round" stroke-linejoin="round" fill-opacity="0" stroke-dasharray=" 0 8" stroke-dashoffset="0" stroke="rgb(0,0,0)" stroke-opacity="1" stroke-width="1.5" d=" M35.75299835205078,0 C35.75299835205078,0 -35.75299835205078,0 -35.75299835205078,0"></path></g></g><g transform="matrix(1,0,0,1,279.927001953125,49.17599868774414)" opacity="1" style="display: block;"><g opacity="1" transform="matrix(1,0,0,1,0,0)"><path stroke-linecap="round" stroke-linejoin="round" fill-opacity="0" stroke-dasharray=" 0 8" stroke-dashoffset="0" stroke="rgb(0,0,0)" stroke-opacity="1" stroke-width="1.5" d=" M-38.426998138427734,0 C-38.426998138427734,0 38.426998138427734,0 38.426998138427734,0"></path></g></g></g></svg>