<svg xmlns="http://www.w3.org/2000/svg" viewBox="0 0 500 444" width="500" height="444" preserveAspectRatio="xMidYMid meet" style="width: 100%; height: 100%; transform: translate3d(0px, 0px, 0px);"><defs><clipPath id="__lottie_element_915"><rect width="500" height="444" x="0" y="0"></rect></clipPath></defs><g clip-path="url(#__lottie_element_915)"><g style="display: block;" transform="matrix(1,0,0,1,146,149)" opacity="1"><g opacity="1" transform="matrix(1,0,0,1,0,0)"><path fill="rgb(4,5,4)" fill-opacity="1" d=" M176.99000549316406,130.36000061035156 C176.99000549316406,130.36000061035156 173.86000061035156,141.94000244140625 173.86000061035156,141.94000244140625 C173.86000061035156,141.94000244140625 173.83999633789062,141.92999267578125 173.83999633789062,141.92999267578125 C173.3000030517578,143.5 171.60000610351562,144.3300018310547 170.02999877929688,143.7899932861328 C168.82000732421875,143.3800048828125 168,142.24000549316406 168,140.9600067138672 C168,140.9600067138672 6,140.9600067138672 6,140.9600067138672 C6,142.61000061035156 4.659999847412109,143.9600067138672 3,143.9600067138672 C1.350000023841858,143.9600067138672 0,142.61000061035156 0,140.9600067138672 C0,139.3000030517578 1.350000023841858,137.9600067138672 3,137.9600067138672 C3,137.9600067138672 3,8.960000038146973 3,8.960000038146973 C1.350000023841858,8.949999809265137 0.009999999776482582,7.610000133514404 0.009999999776482582,5.949999809265137 C0.019999999552965164,4.650000095367432 0.8500000238418579,3.5 2.0899999141693115,3.0999999046325684 C2.0899999141693115,3.0999999046325684 12.359999656677246,0 12.359999656677246,0 C12.359999656677246,0 13,4.960000038146973 13,4.960000038146973 C13,4.960000038146973 13,130.1199951171875 13,130.1199951171875 C13,130.1199951171875 18,130.1300048828125 18,130.1300048828125 C18,130.1300048828125 18,113.95999908447266 18,113.95999908447266 C18,113.95999908447266 28.139999389648438,103.02999877929688 28.139999389648438,103.02999877929688 C28.139999389648438,103.02999877929688 33,113.95999908447266 33,113.95999908447266 C33,113.95999908447266 42.7599983215332,130.1699981689453 42.7599983215332,130.1699981689453 C42.7599983215332,130.1699981689453 54,130.17999267578125 54,130.17999267578125 C54,130.17999267578125 54,92.95999908447266 54,92.95999908447266 C54,92.95999908447266 64.16000366210938,81.94000244140625 64.16000366210938,81.94000244140625 C64.16000366210938,81.94000244140625 69,92.95999908447266 69,92.95999908447266 C69,92.95999908447266 78.8499984741211,130.22000122070312 78.8499984741211,130.22000122070312 C78.8499984741211,130.22000122070312 90,130.22999572753906 90,130.22999572753906 C90,130.22999572753906 90,79.95999908447266 90,79.95999908447266 C90,79.95999908447266 100.08000183105469,68.95999908447266 100.08000183105469,68.95999908447266 C100.08000183105469,68.95999908447266 105,79.95999908447266 105,79.95999908447266 C105,79.95999908447266 114.87000274658203,130.27000427246094 114.87000274658203,130.27000427246094 C114.87000274658203,130.27000427246094 126,130.2899932861328 126,130.2899932861328 C126,130.2899932861328 126,66.95999908447266 126,66.95999908447266 C126,66.95999908447266 136.10000610351562,56.0099983215332 136.10000610351562,56.0099983215332 C136.10000610351562,56.0099983215332 141,66.95999908447266 141,66.95999908447266 C141,66.95999908447266 150.82000732421875,130.32000732421875 150.82000732421875,130.32000732421875 C150.82000732421875,130.32000732421875 176.99000549316406,130.36000061035156 176.99000549316406,130.36000061035156z"></path></g></g><g transform="matrix(0.99996417760849,0,0,0.99996417760849,159,279.5)" opacity="1" style="display: block;"><g opacity="1" transform="matrix(1,0,0,1,0,0)"><path stroke-linecap="butt" stroke-linejoin="miter" fill-opacity="0" stroke-miterlimit="4" stroke="rgb(1,23,54)" stroke-opacity="1" stroke-width="1" d=" M0,0 C0,0 160.5,0 160.5,0"></path></g></g><g transform="matrix(0.99996417760849,0,0,0.99996417760849,159,215.50228881835938)" opacity="1" style="display: block;"><g opacity="1" transform="matrix(1,0,0,1,0,0)"><path stroke-linecap="butt" stroke-linejoin="miter" fill-opacity="0" stroke-miterlimit="4" stroke="rgb(1,23,54)" stroke-opacity="1" stroke-width="1" d=" M0,63.5 C0,63.5 0,-63.5 0,-63.5"></path></g></g><g transform="matrix(0.99996417760849,0,0,0.99996417760849,159,279.5)" opacity="1" style="display: block;"><g opacity="1" transform="matrix(1,0,0,1,0,0)"><path fill="rgb(255,255,255)" fill-opacity="1" d=" M0,-3 C1.6556999683380127,-3 3,-1.6556999683380127 3,0 C3,1.6556999683380127 1.6556999683380127,3 0,3 C-1.6556999683380127,3 -3,1.6556999683380127 -3,0 C-3,-1.6556999683380127 -1.6556999683380127,-3 0,-3z"></path></g><g opacity="1" transform="matrix(1,0,0,1,0,0)"><path stroke-linecap="butt" stroke-linejoin="miter" fill-opacity="0" stroke-miterlimit="4" stroke="rgb(1,23,54)" stroke-opacity="1" stroke-width="1" d=" M0,-3 C1.6556999683380127,-3 3,-1.6556999683380127 3,0 C3,1.6556999683380127 1.6556999683380127,3 0,3 C-1.6556999683380127,3 -3,1.6556999683380127 -3,0 C-3,-1.6556999683380127 -1.6556999683380127,-3 0,-3z"></path></g></g><g transform="matrix(0.99996417760849,0,0,0.99996417760849,319.9942321777344,279.5)" opacity="1" style="display: block;"><g opacity="1" transform="matrix(1,0,0,1,0,0)"><path fill="rgb(255,255,255)" fill-opacity="1" d=" M0,-3 C1.6556999683380127,-3 3,-1.6556999683380127 3,0 C3,1.6556999683380127 1.6556999683380127,3 0,3 C-1.6556999683380127,3 -3,1.6556999683380127 -3,0 C-3,-1.6556999683380127 -1.6556999683380127,-3 0,-3z"></path></g><g opacity="1" transform="matrix(1,0,0,1,0,0)"><path stroke-linecap="butt" stroke-linejoin="miter" fill-opacity="0" stroke-miterlimit="4" stroke="rgb(1,23,54)" stroke-opacity="1" stroke-width="1" d=" M0,-3 C1.6556999683380127,-3 3,-1.6556999683380127 3,0 C3,1.6556999683380127 1.6556999683380127,3 0,3 C-1.6556999683380127,3 -3,1.6556999683380127 -3,0 C-3,-1.6556999683380127 -1.6556999683380127,-3 0,-3z"></path></g></g><g transform="matrix(0.99996417760849,0,0,0.99996417760849,159,152.50454711914062)" opacity="1" style="display: block;"><g opacity="1" transform="matrix(1,0,0,1,0,0)"><path fill="rgb(255,255,255)" fill-opacity="1" d=" M0,-3 C1.6556999683380127,-3 3,-1.6556999683380127 3,0 C3,1.6556999683380127 1.6556999683380127,3 0,3 C-1.6556999683380127,3 -3,1.6556999683380127 -3,0 C-3,-1.6556999683380127 -1.6556999683380127,-3 0,-3z"></path></g><g opacity="1" transform="matrix(1,0,0,1,0,0)"><path stroke-linecap="butt" stroke-linejoin="miter" fill-opacity="0" stroke-miterlimit="4" stroke="rgb(1,23,54)" stroke-opacity="1" stroke-width="1" d=" M0,-3 C1.6556999683380127,-3 3,-1.6556999683380127 3,0 C3,1.6556999683380127 1.6556999683380127,3 0,3 C-1.6556999683380127,3 -3,1.6556999683380127 -3,0 C-3,-1.6556999683380127 -1.6556999683380127,-3 0,-3z"></path></g></g><g transform="matrix(0.999977171421051,-0.000035813383874483407,0.000035813383874483407,0.999977171421051,85.00025177001953,357.5003967285156)" opacity="1" style="display: block;"><g opacity="1" transform="matrix(1,0,0,1,0,0)"><path fill="rgb(255,255,255)" fill-opacity="1" d=" M0,-34 C18.76460075378418,-34 34,-18.76460075378418 34,0 C34,18.76460075378418 18.76460075378418,34 0,34 C-18.76460075378418,34 -34,18.76460075378418 -34,0 C-34,-18.76460075378418 -18.76460075378418,-34 0,-34z"></path></g><g opacity="1" transform="matrix(1,0,0,1,0,0)"><path stroke-linecap="butt" stroke-linejoin="miter" fill-opacity="0" stroke-miterlimit="4" stroke="rgb(1,23,54)" stroke-opacity="1" stroke-width="1" d=" M0,-34 C18.76460075378418,-34 34,-18.76460075378418 34,0 C34,18.76460075378418 18.76460075378418,34 0,34 C-18.76460075378418,34 -34,18.76460075378418 -34,0 C-34,-18.76460075378418 -18.76460075378418,-34 0,-34z"></path></g></g><g transform="matrix(0.999977171421051,-0.000035813383874483407,0.000035813383874483407,0.999977171421051,23.67043113708496,379.33709716796875)" opacity="1" style="display: block;"><g opacity="1" transform="matrix(1,0,0,1,0,0)"><path stroke-linecap="butt" stroke-linejoin="miter" fill-opacity="0" stroke-miterlimit="4" stroke="rgb(1,23,54)" stroke-opacity="1" stroke-width="1" d=" M36.652000427246094,0 C36.652000427246094,0 0,36.65299987792969 0,36.65299987792969"></path></g></g><g transform="matrix(0.999977171421051,-0.000035813383874483407,0.000035813383874483407,0.999977171421051,64.68144226074219,349.9263000488281)" opacity="1" style="display: block;"><g opacity="1" transform="matrix(1,0,0,1,0,0)"><path fill="rgb(1,23,54)" fill-opacity="1" d=" M31.802000045776367,14.934000015258789 C27.868000030517578,14.934000015258789 24.759000778198242,11.760000228881836 24.759000778198242,7.8470001220703125 C24.759000778198242,3.934000015258789 27.868000030517578,0.7609999775886536 31.802000045776367,0.7609999775886536 C35.736000061035156,0.7609999775886536 38.845001220703125,3.934000015258789 38.845001220703125,7.8470001220703125 C38.845001220703125,11.760000228881836 35.736000061035156,14.934000015258789 31.802000045776367,14.934000015258789z M31.802000045776367,15.694000244140625 C36.17100143432617,15.694000244140625 39.64899826049805,12.17300033569336 39.64899826049805,7.8470001220703125 C39.64899826049805,3.5209999084472656 36.17100143432617,0 31.802000045776367,0 C27.433000564575195,0 23.954999923706055,3.5209999084472656 23.954999923706055,7.8470001220703125 C23.954999923706055,12.17300033569336 27.433000564575195,15.694000244140625 31.802000045776367,15.694000244140625z M14.064000129699707,14.715999603271484 C14.064000129699707,14.715999603271484 14.064000129699707,8.152000427246094 14.064000129699707,8.152000427246094 C14.064000129699707,8.152000427246094 21.23699951171875,8.152000427246094 21.23699951171875,8.152000427246094 C21.23699951171875,8.152000427246094 21.23699951171875,7.4120001792907715 21.23699951171875,7.4120001792907715 C21.23699951171875,7.4120001792907715 14.064000129699707,7.4120001792907715 14.064000129699707,7.4120001792907715 C14.064000129699707,7.4120001792907715 14.064000129699707,0.9779999852180481 14.064000129699707,0.9779999852180481 C14.064000129699707,0.9779999852180481 21.7810001373291,0.9779999852180481 21.7810001373291,0.9779999852180481 C21.7810001373291,0.9779999852180481 21.7810001373291,0.23899999260902405 21.7810001373291,0.23899999260902405 C21.7810001373291,0.23899999260902405 13.260000228881836,0.23899999260902405 13.260000228881836,0.23899999260902405 C13.260000228881836,0.23899999260902405 13.260000228881836,15.454999923706055 13.260000228881836,15.454999923706055 C13.260000228881836,15.454999923706055 21.889999389648438,15.454999923706055 21.889999389648438,15.454999923706055 C21.889999389648438,15.454999923706055 21.889999389648438,14.715999603271484 21.889999389648438,14.715999603271484 C21.889999389648438,14.715999603271484 14.064000129699707,14.715999603271484 14.064000129699707,14.715999603271484z M5.455999851226807,15.694000244140625 C8.456000328063965,15.694000244140625 10.324999809265137,14.020999908447266 10.324999809265137,11.586000442504883 C10.324999809265137,9.130000114440918 8.152000427246094,8.23799991607666 5.5,7.36899995803833 C3.2179999351501465,6.630000114440918 1.4129999876022339,6 1.4129999876022339,4 C1.4129999876022339,2.303999900817871 2.759999990463257,0.7609999775886536 5.172999858856201,0.7609999775886536 C7.499000072479248,0.7609999775886536 8.694999694824219,2.1080000400543213 9.23799991607666,3.5209999084472656 C9.23799991607666,3.5209999084472656 9.890999794006348,3.1519999504089355 9.890999794006348,3.1519999504089355 C9.194999694824219,1.434999942779541 7.629000186920166,0 5.172999858856201,0 C2.5209999084472656,0 0.6299999952316284,1.7170000076293945 0.6299999952316284,4.020999908447266 C0.6299999952316284,6.543000221252441 2.760999917984009,7.324999809265137 5.36899995803833,8.107999801635742 C7.803999900817871,8.847000122070312 9.543000221252441,9.67300033569336 9.543000221252441,11.607999801635742 C9.543000221252441,13.434000015258789 8.217000007629395,14.934000015258789 5.478000164031982,14.934000015258789 C2.869999885559082,14.934000015258789 1.1959999799728394,13.651000022888184 0.6740000247955322,11.824999809265137 C0.6740000247955322,11.824999809265137 0,12.215999603271484 0,12.215999603271484 C0.6299999952316284,14.215999603271484 2.565000057220459,15.694000244140625 5.455999851226807,15.694000244140625z"></path></g></g><g transform="matrix(0.999977171421051,-0.000035813383874483407,0.000035813383874483407,0.999977171421051,88.64289855957031,349.9454345703125)" opacity="1" style="display: block;"><g opacity="1" transform="matrix(1,0,0,1,0,0)"><path fill="rgb(114,2,187)" fill-opacity="1" d=" M7.906000137329102,0 C12.27299976348877,0 15.812999725341797,3.5390000343322754 15.812999725341797,7.906000137329102 C15.812999725341797,8.508999824523926 15.746000289916992,9.095999717712402 15.539999961853027,9.973999977111816 C14.819999694824219,13.182999610900879 11.670000076293945,15.812999725341797 7.906000137329102,15.812999725341797 C3.5390000343322754,15.812999725341797 0,12.27299976348877 0,7.906000137329102 C0,3.5390000343322754 3.5390000343322754,0 7.906000137329102,0z"></path></g><g opacity="1" transform="matrix(1,0,0,1,0,0)"></g></g><g style="display: block;" transform="matrix(0.999977171421051,-0.000035813383874483407,0.000035813383874483407,0.999977171421051,71.33499908447266,369.7445983886719)" opacity="1"></g><g style="display: block;" transform="matrix(0.9999187588691711,0.0001275931135751307,-0.0001275931135751307,0.9999187588691711,51.99859619140625,123.49910736083984)" opacity="1"><g opacity="1" transform="matrix(1,0,0,1,0,0)"><path fill="rgb(255,255,255)" fill-opacity="1" d=" M39,-26 C39,-26 39,26 39,26 C39,26 -39,26 -39,26 C-39,26 -39,-26 -39,-26 C-39,-26 39,-26 39,-26z"></path></g><g opacity="1" transform="matrix(1,0,0,1,0,0)"><path stroke-linecap="butt" stroke-linejoin="miter" fill-opacity="0" stroke-miterlimit="4" stroke="rgb(1,23,54)" stroke-opacity="1" stroke-width="1" d=" M39,-26 C39,-26 39,26 39,26 C39,26 -39,26 -39,26 C-39,26 -39,-26 -39,-26 C-39,-26 39,-26 39,-26z"></path></g></g><g transform="matrix(0.999977171421051,-0.000035813383874483407,0.000035813383874483407,0.999977171421051,420.00244140625,273.5011901855469)" opacity="1" style="display: block;"><g opacity="1" transform="matrix(1,0,0,1,0,0)"><path fill="rgb(255,255,255)" fill-opacity="1" d=" M67,-45 C67,-45 67,45 67,45 C67,45 -67,45 -67,45 C-67,45 -67,-45 -67,-45 C-67,-45 67,-45 67,-45z"></path></g><g opacity="1" transform="matrix(1,0,0,1,0,0)"><path stroke-linecap="butt" stroke-linejoin="miter" fill-opacity="0" stroke-miterlimit="4" stroke="rgb(1,23,54)" stroke-opacity="1" stroke-width="1" d=" M67,-45 C67,-45 67,45 67,45 C67,45 -67,45 -67,45 C-67,45 -67,-45 -67,-45 C-67,-45 67,-45 67,-45z"></path></g></g><g transform="matrix(0.000035813383874483407,0.999977171421051,-0.999977171421051,0.000035813383874483407,433.0016174316406,258.5010681152344)" opacity="1" style="display: block;"><g opacity="1" transform="matrix(1,0,0,1,0,0)"><path fill="rgb(255,255,255)" fill-opacity="1" d=" M15,0 C15,0 30,26 30,26 C30,26 0,26 0,26 C0,26 15,0 15,0z"></path></g><g opacity="1" transform="matrix(1,0,0,1,0,0)"><path stroke-linecap="butt" stroke-linejoin="miter" fill-opacity="0" stroke-miterlimit="4" stroke="rgb(1,23,54)" stroke-opacity="1" stroke-width="1" d=" M15,0 C15,0 30,26 30,26 C30,26 0,26 0,26 C0,26 15,0 15,0z"></path></g></g><g transform="matrix(0.999977171421051,-0.000035813383874483407,0.000035813383874483407,0.999977171421051,474.5,240)" opacity="1" style="display: block;"><g opacity="1" transform="matrix(1,0,0,1,0,0)"><path fill="rgb(114,2,187)" fill-opacity="1" d=" M0,-5.5 C3.035449981689453,-5.5 5.5,-3.035449981689453 5.5,0 C5.5,3.035449981689453 3.035449981689453,5.5 0,5.5 C-3.035449981689453,5.5 -5.5,3.035449981689453 -5.5,0 C-5.5,-3.035449981689453 -3.035449981689453,-5.5 0,-5.5z"></path></g><g opacity="1" transform="matrix(1,0,0,1,0,0)"></g></g><g style="display: block;" transform="matrix(0.999977171421051,-0.000035813383874483407,0.000035813383874483407,0.999977171421051,420.00244140625,273.5011901855469)" opacity="1"></g><g style="display: block;" transform="matrix(-0.9999187588691711,-0.0001275931135751307,0.0001275931135751307,-0.9999187588691711,90.99453735351562,130.50350952148438)" opacity="1"><g opacity="1" transform="matrix(1,0,0,1,0,0)"><path fill="rgb(255,255,255)" fill-opacity="1" d=" M39,0 C39,0 78,33 78,33 C78,33 0,33 0,33 C0,33 39,0 39,0z"></path></g><g opacity="1" transform="matrix(1,0,0,1,0,0)"><path stroke-linecap="butt" stroke-linejoin="miter" fill-opacity="0" stroke-miterlimit="4" stroke="rgb(1,23,54)" stroke-opacity="1" stroke-width="1" d=" M39,0 C39,0 78,33 78,33 C78,33 0,33 0,33 C0,33 39,0 39,0z"></path></g></g><g style="display: block;" transform="matrix(0.9999187588691711,0.0001275931135751307,-0.0001275931135751307,0.9999187588691711,52.49989700317383,113.0000228881836)" opacity="1"><g opacity="1" transform="matrix(1,0,0,1,0,0)"><path fill="rgb(114,2,187)" fill-opacity="1" d=" M0,-5.5 C3.035449981689453,-5.5 5.5,-3.035449981689453 5.5,0 C5.5,3.035449981689453 3.035449981689453,5.5 0,5.5 C-3.035449981689453,5.5 -5.5,3.035449981689453 -5.5,0 C-5.5,-3.035449981689453 -3.035449981689453,-5.5 0,-5.5z"></path></g><g opacity="1" transform="matrix(1,0,0,1,0,0)"></g></g><g transform="matrix(1,0,0,0.99996417760849,181.5,266.00048828125)" opacity="1" style="display: block;"><g opacity="1" transform="matrix(1,0,0,1,0,0)"><path fill="rgb(255,255,255)" fill-opacity="1" d=" M7.5,-13.5 C7.5,-13.5 7.5,13.5 7.5,13.5 C7.5,13.5 -7.5,13.5 -7.5,13.5 C-7.5,13.5 -7.5,-13.5 -7.5,-13.5 C-7.5,-13.5 7.5,-13.5 7.5,-13.5z"></path></g><g opacity="1" transform="matrix(1,0,0,1,0,0)"><path stroke-linecap="butt" stroke-linejoin="miter" fill-opacity="0" stroke-miterlimit="4" stroke="rgb(1,23,54)" stroke-opacity="1" stroke-width="1" d=" M7.5,-13.5 C7.5,-13.5 7.5,13.5 7.5,13.5 C7.5,13.5 -7.5,13.5 -7.5,13.5 C-7.5,13.5 -7.5,-13.5 -7.5,-13.5 C-7.5,-13.5 7.5,-13.5 7.5,-13.5z"></path></g></g><g style="display: block;" transform="matrix(1,0,0,1.0000262260437012,217.5,255.49937438964844)" opacity="1"><g opacity="1" transform="matrix(1,0,0,1,0,0)"><path fill="rgb(255,255,255)" fill-opacity="1" d=" M7.5,-24 C7.5,-24 7.5,24 7.5,24 C7.5,24 -7.5,24 -7.5,24 C-7.5,24 -7.5,-24 -7.5,-24 C-7.5,-24 7.5,-24 7.5,-24z"></path></g><g opacity="1" transform="matrix(1,0,0,1,0,0)"><path stroke-linecap="butt" stroke-linejoin="miter" fill-opacity="0" stroke-miterlimit="4" stroke="rgb(1,23,54)" stroke-opacity="1" stroke-width="1" d=" M7.5,-24 C7.5,-24 7.5,24 7.5,24 C7.5,24 -7.5,24 -7.5,24 C-7.5,24 -7.5,-24 -7.5,-24 C-7.5,-24 7.5,-24 7.5,-24z"></path></g></g><g style="display: block;" transform="matrix(1,0,0,1.0000590085983276,253.5,248.99819946289062)" opacity="1"><g opacity="1" transform="matrix(1,0,0,1,0,0)"><path fill="rgb(255,255,255)" fill-opacity="1" d=" M7.5,-30.5 C7.5,-30.5 7.5,30.5 7.5,30.5 C7.5,30.5 -7.5,30.5 -7.5,30.5 C-7.5,30.5 -7.5,-30.5 -7.5,-30.5 C-7.5,-30.5 7.5,-30.5 7.5,-30.5z"></path></g><g opacity="1" transform="matrix(1,0,0,1,0,0)"><path stroke-linecap="butt" stroke-linejoin="miter" fill-opacity="0" stroke-miterlimit="4" stroke="rgb(1,23,54)" stroke-opacity="1" stroke-width="1" d=" M7.5,-30.5 C7.5,-30.5 7.5,30.5 7.5,30.5 C7.5,30.5 -7.5,30.5 -7.5,30.5 C-7.5,30.5 -7.5,-30.5 -7.5,-30.5 C-7.5,-30.5 7.5,-30.5 7.5,-30.5z"></path></g></g><g style="display: block;" transform="matrix(1,0,0,0.9999187588691711,289.5,242.5030059814453)" opacity="1"><g opacity="1" transform="matrix(1,0,0,1,0,0)"><path fill="rgb(255,255,255)" fill-opacity="1" d=" M7.5,-37 C7.5,-37 7.5,37 7.5,37 C7.5,37 -7.5,37 -7.5,37 C-7.5,37 -7.5,-37 -7.5,-37 C-7.5,-37 7.5,-37 7.5,-37z"></path></g><g opacity="1" transform="matrix(1,0,0,1,0,0)"><path stroke-linecap="butt" stroke-linejoin="miter" fill-opacity="0" stroke-miterlimit="4" stroke="rgb(1,23,54)" stroke-opacity="1" stroke-width="1" d=" M7.5,-37 C7.5,-37 7.5,37 7.5,37 C7.5,37 -7.5,37 -7.5,37 C-7.5,37 -7.5,-37 -7.5,-37 C-7.5,-37 7.5,-37 7.5,-37z"></path></g></g><g transform="matrix(0.99996417760849,0,0,0.99996417760849,175.61900329589844,184.86891174316406)" opacity="1" style="display: block;"><g opacity="1" transform="matrix(1,0,0,1,0,0)"><path stroke-linecap="butt" stroke-linejoin="miter" fill-opacity="0" stroke-miterlimit="4" stroke="rgb(1,23,54)" stroke-opacity="1" stroke-width="1" d=" M0,53.33300018310547 C0,53.33300018310547 69.74600219726562,30.770000457763672 101.28299713134766,0"></path></g></g><g transform="matrix(1.0000590085983276,0,0,1.0000590085983276,365.5,159)" opacity="1" style="display: block;"><g opacity="1" transform="matrix(1,0,0,1,0,0)"><path fill="rgb(255,255,255)" fill-opacity="1" d=" M0,-17.5 C9.658249855041504,-17.5 17.5,-9.658249855041504 17.5,0 C17.5,9.658249855041504 9.658249855041504,17.5 0,17.5 C-9.658249855041504,17.5 -17.5,9.658249855041504 -17.5,0 C-17.5,-9.658249855041504 -9.658249855041504,-17.5 0,-17.5z"></path></g><g opacity="1" transform="matrix(1,0,0,1,0,0)"><path stroke-linecap="round" stroke-linejoin="miter" fill-opacity="0" stroke-miterlimit="4" stroke-dasharray=" 0 5" stroke-dashoffset="0" stroke="rgb(0,0,0)" stroke-opacity="1" stroke-width="2" d=" M0,-17.5 C9.658249855041504,-17.5 17.5,-9.658249855041504 17.5,0 C17.5,9.658249855041504 9.658249855041504,17.5 0,17.5 C-9.658249855041504,17.5 -17.5,9.658249855041504 -17.5,0 C-17.5,-9.658249855041504 -9.658249855041504,-17.5 0,-17.5z"></path></g></g><g transform="matrix(1.0000590085983276,0,0,1.0000590085983276,364.9999694824219,159.50003051757812)" opacity="1" style="display: block;"><g opacity="1" transform="matrix(1,0,0,1,0,0)"><path fill="rgb(255,255,255)" fill-opacity="1" d=" M8,-5 C8,-5 8,5 8,5 C8,6.655700206756592 6.655700206756592,8 5,8 C5,8 -5,8 -5,8 C-6.655700206756592,8 -8,6.655700206756592 -8,5 C-8,5 -8,-5 -8,-5 C-8,-6.655700206756592 -6.655700206756592,-8 -5,-8 C-5,-8 5,-8 5,-8 C6.655700206756592,-8 8,-6.655700206756592 8,-5z"></path></g><g opacity="1" transform="matrix(1,0,0,1,0,0)"><path stroke-linecap="butt" stroke-linejoin="miter" fill-opacity="0" stroke-miterlimit="4" stroke="rgb(1,23,54)" stroke-opacity="1" stroke-width="1" d=" M8,-5 C8,-5 8,5 8,5 C8,6.655700206756592 6.655700206756592,8 5,8 C5,8 -5,8 -5,8 C-6.655700206756592,8 -8,6.655700206756592 -8,5 C-8,5 -8,-5 -8,-5 C-8,-6.655700206756592 -6.655700206756592,-8 -5,-8 C-5,-8 5,-8 5,-8 C6.655700206756592,-8 8,-6.655700206756592 8,-5z"></path></g></g><g style="display: block;" transform="matrix(1.0000590085983276,0,0,1.0000590085983276,365.5,159)" opacity="1"></g><g transform="matrix(1.0000590085983276,0,0,1.0000590085983276,364.9999694824219,159.50003051757812)" opacity="1" style="display: block;"><g opacity="1" transform="matrix(1,0,0,1,0,0)"><path fill="rgb(255,255,255)" fill-opacity="1" d=" M0,-4 C2.2076001167297363,-4 4,-2.2076001167297363 4,0 C4,2.2076001167297363 2.2076001167297363,4 0,4 C-2.2076001167297363,4 -4,2.2076001167297363 -4,0 C-4,-2.2076001167297363 -2.2076001167297363,-4 0,-4z"></path></g><g opacity="1" transform="matrix(1,0,0,1,0,0)"><path stroke-linecap="butt" stroke-linejoin="miter" fill-opacity="0" stroke-miterlimit="4" stroke="rgb(1,23,54)" stroke-opacity="1" stroke-width="1" d=" M0,-4 C2.2076001167297363,-4 4,-2.2076001167297363 4,0 C4,2.2076001167297363 2.2076001167297363,4 0,4 C-2.2076001167297363,4 -4,2.2076001167297363 -4,0 C-4,-2.2076001167297363 -2.2076001167297363,-4 0,-4z"></path></g></g><g transform="matrix(1.0000590085983276,0,0,1.0000590085983276,143.5,78)" opacity="1" style="display: block;"><g opacity="1" transform="matrix(1,0,0,1,0,0)"><path fill="rgb(255,255,255)" fill-opacity="1" d=" M0,-16.5 C9.10634994506836,-16.5 16.5,-9.10634994506836 16.5,0 C16.5,9.10634994506836 9.10634994506836,16.5 0,16.5 C-9.10634994506836,16.5 -16.5,9.10634994506836 -16.5,0 C-16.5,-9.10634994506836 -9.10634994506836,-16.5 0,-16.5z"></path></g><g opacity="1" transform="matrix(1,0,0,1,0,0)"><path stroke-linecap="round" stroke-linejoin="miter" fill-opacity="0" stroke-miterlimit="4" stroke-dasharray=" 0 5" stroke-dashoffset="0" stroke="rgb(0,0,0)" stroke-opacity="1" stroke-width="2" d=" M0,-16.5 C9.10634994506836,-16.5 16.5,-9.10634994506836 16.5,0 C16.5,9.10634994506836 9.10634994506836,16.5 0,16.5 C-9.10634994506836,16.5 -16.5,9.10634994506836 -16.5,0 C-16.5,-9.10634994506836 -9.10634994506836,-16.5 0,-16.5z"></path></g></g><g transform="matrix(1.0000590085983276,0,0,1.0000590085983276,134.99949645996094,71.99964904785156)" opacity="1" style="display: block;"><g opacity="1" transform="matrix(1,0,0,1,0,0)"><path stroke-linecap="butt" stroke-linejoin="miter" fill-opacity="0" stroke-miterlimit="4" stroke="rgb(1,23,54)" stroke-opacity="1" stroke-width="1" d=" M16,1.5390000343322754 C15.404999732971191,1.7999999523162842 14.770999908447266,1.9730000495910645 14.109999656677246,2.056999921798706 C14.789999961853027,1.6510000228881836 15.309000015258789,1.0130000114440918 15.553000450134277,0.24400000274181366 C14.918999671936035,0.621999979019165 14.218999862670898,0.8889999985694885 13.472999572753906,1.0379999876022339 C12.871000289916992,0.3970000147819519 12.012999534606934,0 11.07699966430664,0 C9.26099967956543,0 7.798999786376953,1.4739999771118164 7.798999786376953,3.2809998989105225 C7.798999786376953,3.5409998893737793 7.821000099182129,3.7909998893737793 7.875,4.0289998054504395 C5.1479997634887695,3.8959999084472656 2.734999895095825,2.5889999866485596 1.1139999628067017,0.5979999899864197 C0.8309999704360962,1.0889999866485596 0.6650000214576721,1.6510000228881836 0.6650000214576721,2.25600004196167 C0.6650000214576721,3.3919999599456787 1.25,4.39900016784668 2.121999979019165,4.98199987411499 C1.5950000286102295,4.9720001220703125 1.0779999494552612,4.818999767303467 0.6399999856948853,4.578000068664551 C0.6399999856948853,4.5879998207092285 0.6399999856948853,4.60099983215332 0.6399999856948853,4.613999843597412 C0.6399999856948853,6.208000183105469 1.7769999504089355,7.5320000648498535 3.2679998874664307,7.836999893188477 C3.000999927520752,7.909999847412109 2.7100000381469727,7.945000171661377 2.4079999923706055,7.945000171661377 C2.197999954223633,7.945000171661377 1.9859999418258667,7.933000087738037 1.7869999408721924,7.888999938964844 C2.2119998931884766,9.187999725341797 3.4179999828338623,10.142999649047852 4.8520002365112305,10.173999786376953 C3.7360000610351562,11.04699993133545 2.319000005722046,11.572999954223633 0.7850000262260437,11.572999954223633 C0.515999972820282,11.572999954223633 0.257999986410141,11.560999870300293 0,11.527999877929688 C1.4529999494552612,12.46500015258789 3.174999952316284,13 5.0320000648498535,13 C11.067999839782715,13 14.368000030517578,8 14.368000030517578,3.6659998893737793 C14.368000030517578,3.5209999084472656 14.36299991607666,3.38100004196167 14.355999946594238,3.242000102996826 C15.006999969482422,2.7799999713897705 15.553999900817871,2.203000068664551 16,1.5390000343322754z"></path></g></g><g transform="matrix(1.0000590085983276,0,0,1.0000590085983276,142.99996948242188,78.50003051757812)" opacity="1" style="display: block;"></g><g transform="matrix(1.0000590085983276,0,0,1.0000590085983276,142.99996948242188,78.50003051757812)" opacity="1" style="display: block;"></g><g style="display: block;" transform="matrix(1.0000590085983276,0,0,1.0000590085983276,143.5,78)" opacity="1"></g><g transform="matrix(1.0000590085983276,0,0,1.0000590085983276,248.5,372)" opacity="1" style="display: block;"><g opacity="1" transform="matrix(1,0,0,1,0,0)"></g><g opacity="1" transform="matrix(1,0,0,1,0,0)"><path stroke-linecap="round" stroke-linejoin="miter" fill-opacity="0" stroke-miterlimit="4" stroke-dasharray=" 0 5" stroke-dashoffset="0" stroke="rgb(0,0,0)" stroke-opacity="1" stroke-width="2" d=" M0,-17.5 C9.658249855041504,-17.5 17.5,-9.658249855041504 17.5,0 C17.5,9.658249855041504 9.658249855041504,17.5 0,17.5 C-9.658249855041504,17.5 -17.5,9.658249855041504 -17.5,0 C-17.5,-9.658249855041504 -9.658249855041504,-17.5 0,-17.5z"></path></g></g><g transform="matrix(1.0000590085983276,0,0,1.0000590085983276,240.5665283203125,365.0845947265625)" opacity="1" style="display: block;"><g opacity="1" transform="matrix(1,0,0,1,0,0)"><path fill="rgb(1,23,54)" fill-opacity="1" d=" M5.26200008392334,2.236999988555908 M5.26200008392334,2.236999988555908 C4.486000061035156,2.236999988555908 3.7100000381469727,2.5320000648498535 3.119999885559082,3.121999979019165 C1.9390000104904175,4.302999973297119 1.9390000104904175,6.223999977111816 3.119999885559082,7.40500020980835 C3.119999885559082,7.40500020980835 8.387999534606934,12.67300033569336 8.387999534606934,12.67300033569336 C8.387999534606934,12.67300033569336 13.654999732971191,7.40500020980835 13.654999732971191,7.40500020980835 C14.22700023651123,6.833000183105469 14.543000221252441,6.072999954223633 14.543000221252441,5.263999938964844 C14.543000221252441,4.454999923706055 14.22700023651123,3.694999933242798 13.654999732971191,3.122999906539917 C13.314000129699707,2.7820000648498535 12.90999984741211,2.5329999923706055 12.454999923706055,2.384000062942505 C11.362000465393066,2.0320000648498535 10.182000160217285,2.312000036239624 9.371000289916992,3.121999979019165 C9.371000289916992,3.121999979019165 9.178999900817871,3.315999984741211 9.178999900817871,3.315999984741211 C8.970000267028809,3.5269999504089355 8.6850004196167,3.6449999809265137 8.387999534606934,3.6449999809265137 C8.387999534606934,3.6449999809265137 8.38700008392334,3.6449999809265137 8.38700008392334,3.6449999809265137 C8.090999603271484,3.6449999809265137 7.806000232696533,3.5280001163482666 7.5970001220703125,3.316999912261963 C7.5970001220703125,3.316999912261963 7.4019999504089355,3.121000051498413 7.4019999504089355,3.121000051498413 C6.811999797821045,2.5329999923706055 6.0370001792907715,2.236999988555908 5.26200008392334,2.236999988555908z M8.387999534606934,15.369000434875488 C8.092000007629395,15.369000434875488 7.808000087738037,15.25 7.598999977111816,15.041000366210938 C7.598999977111816,15.041000366210938 1.5420000553131104,8.984000205993652 1.5420000553131104,8.984000205993652 C0.5479999780654907,7.988999843597412 0,6.669000148773193 0,5.263999938964844 C0,3.8589999675750732 0.5479999780654907,2.5369999408721924 1.5420000553131104,1.5440000295639038 C3.4049999713897705,-0.3190000057220459 6.328999996185303,-0.49000000953674316 8.387999534606934,1.031000018119812 C9.746000289916992,0.02500000037252903 11.505000114440918,-0.2720000147819519 13.147000312805176,0.26100000739097595 C13.14799976348877,0.26100000739097595 13.14799976348877,0.2619999945163727 13.14799976348877,0.2619999945163727 C13.928999900817871,0.5170000195503235 14.651000022888184,0.9599999785423279 15.234000205993652,1.5429999828338623 C17.285999298095703,3.5950000286102295 17.285999298095703,6.932000160217285 15.234000205993652,8.984000205993652 C15.234000205993652,8.984000205993652 9.177000045776367,15.041000366210938 9.177000045776367,15.041000366210938 C8.967000007629395,15.25100040435791 8.684000015258789,15.369000434875488 8.387999534606934,15.369000434875488z"></path><path stroke-linecap="butt" stroke-linejoin="miter" fill-opacity="0" stroke-miterlimit="4" stroke="rgb(255,255,255)" stroke-opacity="1" stroke-width="1" d=" M5.26200008392334,2.236999988555908 M5.26200008392334,2.236999988555908 C4.486000061035156,2.236999988555908 3.7100000381469727,2.5320000648498535 3.119999885559082,3.121999979019165 C1.9390000104904175,4.302999973297119 1.9390000104904175,6.223999977111816 3.119999885559082,7.40500020980835 C3.119999885559082,7.40500020980835 8.387999534606934,12.67300033569336 8.387999534606934,12.67300033569336 C8.387999534606934,12.67300033569336 13.654999732971191,7.40500020980835 13.654999732971191,7.40500020980835 C14.22700023651123,6.833000183105469 14.543000221252441,6.072999954223633 14.543000221252441,5.263999938964844 C14.543000221252441,4.454999923706055 14.22700023651123,3.694999933242798 13.654999732971191,3.122999906539917 C13.314000129699707,2.7820000648498535 12.90999984741211,2.5329999923706055 12.454999923706055,2.384000062942505 C11.362000465393066,2.0320000648498535 10.182000160217285,2.312000036239624 9.371000289916992,3.121999979019165 C9.371000289916992,3.121999979019165 9.178999900817871,3.315999984741211 9.178999900817871,3.315999984741211 C8.970000267028809,3.5269999504089355 8.6850004196167,3.6449999809265137 8.387999534606934,3.6449999809265137 C8.387999534606934,3.6449999809265137 8.38700008392334,3.6449999809265137 8.38700008392334,3.6449999809265137 C8.090999603271484,3.6449999809265137 7.806000232696533,3.5280001163482666 7.5970001220703125,3.316999912261963 C7.5970001220703125,3.316999912261963 7.4019999504089355,3.121000051498413 7.4019999504089355,3.121000051498413 C6.811999797821045,2.5329999923706055 6.0370001792907715,2.236999988555908 5.26200008392334,2.236999988555908z M8.387999534606934,15.369000434875488 C8.092000007629395,15.369000434875488 7.808000087738037,15.25 7.598999977111816,15.041000366210938 C7.598999977111816,15.041000366210938 1.5420000553131104,8.984000205993652 1.5420000553131104,8.984000205993652 C0.5479999780654907,7.988999843597412 0,6.669000148773193 0,5.263999938964844 C0,3.8589999675750732 0.5479999780654907,2.5369999408721924 1.5420000553131104,1.5440000295639038 C3.4049999713897705,-0.3190000057220459 6.328999996185303,-0.49000000953674316 8.387999534606934,1.031000018119812 C9.746000289916992,0.02500000037252903 11.505000114440918,-0.2720000147819519 13.147000312805176,0.26100000739097595 C13.14799976348877,0.26100000739097595 13.14799976348877,0.2619999945163727 13.14799976348877,0.2619999945163727 C13.928999900817871,0.5170000195503235 14.651000022888184,0.9599999785423279 15.234000205993652,1.5429999828338623 C17.285999298095703,3.5950000286102295 17.285999298095703,6.932000160217285 15.234000205993652,8.984000205993652 C15.234000205993652,8.984000205993652 9.177000045776367,15.041000366210938 9.177000045776367,15.041000366210938 C8.967000007629395,15.25100040435791 8.684000015258789,15.369000434875488 8.387999534606934,15.369000434875488z"></path></g></g><g style="display: block;" transform="matrix(1.0000590085983276,0,0,1.0000590085983276,248.5,372)" opacity="1"></g><g transform="matrix(1.0000590085983276,0,0,1.0000590085983276,293.5,56)" opacity="1" style="display: block;"><g opacity="1" transform="matrix(1,0,0,1,0,0)"></g><g opacity="1" transform="matrix(1,0,0,1,0,0)"><path stroke-linecap="round" stroke-linejoin="miter" fill-opacity="0" stroke-miterlimit="4" stroke-dasharray=" 0 5" stroke-dashoffset="0" stroke="rgb(0,0,0)" stroke-opacity="1" stroke-width="2" d=" M0,-16.5 C9.10634994506836,-16.5 16.5,-9.10634994506836 16.5,0 C16.5,9.10634994506836 9.10634994506836,16.5 0,16.5 C-9.10634994506836,16.5 -16.5,9.10634994506836 -16.5,0 C-16.5,-9.10634994506836 -9.10634994506836,-16.5 0,-16.5z"></path></g></g><g transform="matrix(1.0000590085983276,0,0,1.0000590085983276,289.6807861328125,47.86452102661133)" opacity="1" style="display: block;"><g opacity="1" transform="matrix(1,0,0,1,0,0)"><path stroke-linecap="butt" stroke-linejoin="miter" fill-opacity="0" stroke-miterlimit="4" stroke="rgb(1,23,54)" stroke-opacity="1" stroke-width="1" d=" M5.396999835968018,5.936999797821045 C5.396999835968018,5.936999797821045 5.396999835968018,3.7780001163482666 5.396999835968018,3.7780001163482666 C5.396999835968018,3.181999921798706 5.880000114440918,2.6989998817443848 6.47599983215332,2.6989998817443848 C6.47599983215332,2.6989998817443848 7.556000232696533,2.6989998817443848 7.556000232696533,2.6989998817443848 C7.556000232696533,2.6989998817443848 7.556000232696533,0 7.556000232696533,0 C7.556000232696533,0 5.396999835968018,0 5.396999835968018,0 C3.6080000400543213,0 2.1589999198913574,1.4490000009536743 2.1589999198913574,3.23799991607666 C2.1589999198913574,3.23799991607666 2.1589999198913574,5.936999797821045 2.1589999198913574,5.936999797821045 C2.1589999198913574,5.936999797821045 0,5.936999797821045 0,5.936999797821045 C0,5.936999797821045 0,8.635000228881836 0,8.635000228881836 C0,8.635000228881836 2.1589999198913574,8.635000228881836 2.1589999198913574,8.635000228881836 C2.1589999198913574,8.635000228881836 2.1589999198913574,17.270999908447266 2.1589999198913574,17.270999908447266 C2.1589999198913574,17.270999908447266 5.396999835968018,17.270999908447266 5.396999835968018,17.270999908447266 C5.396999835968018,17.270999908447266 5.396999835968018,8.635000228881836 5.396999835968018,8.635000228881836 C5.396999835968018,8.635000228881836 7.556000232696533,8.635000228881836 7.556000232696533,8.635000228881836 C7.556000232696533,8.635000228881836 8.635000228881836,5.936999797821045 8.635000228881836,5.936999797821045 C8.635000228881836,5.936999797821045 5.396999835968018,5.936999797821045 5.396999835968018,5.936999797821045z"></path></g></g><g transform="matrix(1.0000590085983276,0,0,1.0000590085983276,293.9990234375,56.500030517578125)" opacity="1" style="display: block;"></g><g transform="matrix(1.0000590085983276,0,0,1.0000590085983276,293.9990234375,56.500030517578125)" opacity="1" style="display: block;"></g><g style="display: block;" transform="matrix(1.0000590085983276,0,0,1.0000590085983276,293.5,56)" opacity="1"></g><g transform="matrix(1,0,0,1,143.5,318)" opacity="1" style="display: block;"><g opacity="1" transform="matrix(1,0,0,1,0,0)"></g><g opacity="1" transform="matrix(1,0,0,1,0,0)"><path stroke-linecap="round" stroke-linejoin="miter" fill-opacity="0" stroke-miterlimit="4" stroke-dasharray=" 0 5" stroke-dashoffset="0" stroke="rgb(0,0,0)" stroke-opacity="1" stroke-width="2" d=" M0,-16.5 C9.10634994506836,-16.5 16.5,-9.10634994506836 16.5,0 C16.5,9.10634994506836 9.10634994506836,16.5 0,16.5 C-9.10634994506836,16.5 -16.5,9.10634994506836 -16.5,0 C-16.5,-9.10634994506836 -9.10634994506836,-16.5 0,-16.5z"></path></g></g><g transform="matrix(1,0,0,1,134.51199340820312,315.54998779296875)" opacity="1" style="display: block;"><g opacity="1" transform="matrix(1,0,0,1,0,0)"><path stroke-linecap="butt" stroke-linejoin="miter" fill-opacity="0" stroke-miterlimit="4" stroke="rgb(1,23,54)" stroke-opacity="1" stroke-width="1" d=" M0,0 C0,0 4.896999835968018,0 4.896999835968018,0 C4.896999835968018,0 4.896999835968018,8.673999786376953 4.896999835968018,8.673999786376953 C4.896999835968018,8.673999786376953 0,8.673999786376953 0,8.673999786376953 C0,8.673999786376953 0,0 0,0z"></path></g></g><g transform="matrix(1,0,0,1,139.40899658203125,310.1470031738281)" opacity="1" style="display: block;"><g opacity="1" transform="matrix(1,0,0,1,0,0)"><path stroke-linecap="butt" stroke-linejoin="miter" fill-opacity="0" stroke-miterlimit="4" stroke="rgb(1,23,54)" stroke-opacity="1" stroke-width="1" d=" M0,7.186999797821045 C0,7.186999797821045 5.073999881744385,4.89300012588501 8.192000389099121,0.0010000000474974513 C8.581999778747559,-0.004999999888241291 9.4350004196167,0.017999999225139618 9.4350004196167,0.017999999225139618 C9.4350004196167,0.017999999225139618 9.4350004196167,5.079999923706055 9.4350004196167,5.079999923706055 C9.4350004196167,5.079999923706055 12.133999824523926,5.079999923706055 12.133999824523926,5.079999923706055 C12.133999824523926,5.079999923706055 13.946000099182129,6.223999977111816 13.75,9.668999671936035 C13.553999900817871,13.11400032043457 12.133999824523926,14.305999755859375 12.133999824523926,14.305999755859375 C12.133999824523926,14.305999755859375 4.144999980926514,14.305999755859375 4.144999980926514,14.305999755859375 C4.144999980926514,14.305999755859375 2.00600004196167,12.347000122070312 2.00600004196167,12.347000122070312 C2.00600004196167,12.347000122070312 0,12.347000122070312 0,12.347000122070312"></path></g></g><g style="display: block;" transform="matrix(1,0,0,1,143.5,318)" opacity="1"></g><g style="display: block;" transform="matrix(1.000016212463379,0,0,1.000016212463379,289.5,176)" opacity="1"><g opacity="1" transform="matrix(1,0,0,1,0,0)"><path fill="rgb(114,2,187)" fill-opacity="1" d=" M0,-15.5 C8.554450035095215,-15.5 15.5,-8.554450035095215 15.5,0 C15.5,8.554450035095215 8.554450035095215,15.5 0,15.5 C-8.554450035095215,15.5 -15.5,8.554450035095215 -15.5,0 C-15.5,-8.554450035095215 -8.554450035095215,-15.5 0,-15.5z"></path></g><g opacity="1" transform="matrix(1,0,0,1,0,0)"></g></g></g></svg>